<svg width="207" height="120" viewBox="0 0 207 120" fill="none" xmlns="http://www.w3.org/2000/svg">
<g opacity="0.25">
<circle cx="118" cy="89" r="2" transform="rotate(-90 118 89)" fill="#0071BC"/>
<circle cx="31" cy="89" r="2" transform="rotate(-90 31 89)" fill="#0071BC"/>
<circle cx="89" cy="89" r="2" transform="rotate(-90 89 89)" fill="#0071BC"/>
<circle cx="2" cy="89" r="2" transform="rotate(-90 2 89)" fill="#0071BC"/>
<circle cx="89" cy="60" r="2" transform="rotate(-90 89 60)" fill="#0071BC"/>
<circle cx="2" cy="31" r="2" transform="rotate(-90 2 31)" fill="#0071BC"/>
<circle cx="31" cy="31" r="2" transform="rotate(-90 31 31)" fill="#0071BC"/>
<circle cx="2" cy="2" r="2" transform="rotate(-90 2 2)" fill="#0071BC"/>
<circle cx="2" cy="60" r="2" transform="rotate(-90 2 60)" fill="#0071BC"/>
<circle cx="31" cy="60" r="2" transform="rotate(-90 31 60)" fill="#0071BC"/>
<circle cx="176" cy="118" r="2" transform="rotate(-90 176 118)" fill="#0071BC"/>
<circle cx="205" cy="118" r="2" transform="rotate(-90 205 118)" fill="#0071BC"/>
<circle cx="89" cy="118" r="2" transform="rotate(-90 89 118)" fill="#0071BC"/>
<circle cx="147" cy="118" r="2" transform="rotate(-90 147 118)" fill="#0071BC"/>
<circle cx="60" cy="118" r="2" transform="rotate(-90 60 118)" fill="#0071BC"/>
<circle cx="147" cy="89" r="2" transform="rotate(-90 147 89)" fill="#0071BC"/>
<circle cx="60" cy="89" r="2" transform="rotate(-90 60 89)" fill="#0071BC"/>
<circle cx="118" cy="118" r="2" transform="rotate(-90 118 118)" fill="#0071BC"/>
<circle cx="31" cy="118" r="2" transform="rotate(-90 31 118)" fill="#0071BC"/>
<circle cx="60" cy="60" r="2" transform="rotate(-90 60 60)" fill="#0071BC"/>
</g>
</svg>
