<svg width="53" height="50" viewBox="0 0 53 50" fill="none" xmlns="http://www.w3.org/2000/svg">
<path opacity="0.499653" fill-rule="evenodd" clip-rule="evenodd" d="M46.9689 0H6.03272C2.70559 0 0 2.7047 0 6.03576V43.971C0 47.2982 2.70559 50 6.03272 50H46.9687C50.2958 50 52.9986 47.2982 52.9986 43.971V6.03576C52.9987 2.7047 50.296 0 46.9689 0ZM34.3215 8.97633C37.539 8.97633 40.1484 11.5859 40.1484 14.8032C40.1484 18.0205 37.5389 20.63 34.3215 20.63C31.1031 20.63 28.4947 18.0205 28.4947 14.8032C28.4947 11.5859 31.1031 8.97633 34.3215 8.97633ZM26.4988 44.4235H45.2469C46.8562 44.4235 47.4117 43.3541 46.4909 42.0343L40.1211 32.9355C39.1985 31.6176 37.533 31.4758 36.4026 32.6209L33.9427 35.1118C32.8113 36.2569 31.1021 36.1481 30.1241 34.8701L20.0688 21.7294C19.0909 20.4515 17.71 20.5797 16.9854 22.016L6.98546 41.8227C6.26 43.2591 6.97671 44.4235 8.58599 44.4235H26.4988Z" fill="#233948"/>
</svg>
