<svg width="14" height="14" viewBox="0 0 14 14" fill="none" xmlns="http://www.w3.org/2000/svg">
<path fill-rule="evenodd" clip-rule="evenodd" d="M5.99899 3.90986L4.45399 5.45586C4.12299 5.78986 3.77999 5.81286 3.54999 5.77486C3.16099 5.70886 2.87299 5.46286 2.75999 5.10086C2.64399 4.72686 2.73399 4.35686 3.00599 4.08286L4.96299 2.12286C5.01666 2.06906 5.07058 2.01498 5.12469 1.9607C5.48398 1.60031 5.85237 1.2308 6.21999 0.871859C6.38099 0.714859 6.57499 0.596859 6.76799 0.538859C6.96499 0.477859 7.35399 0.436859 7.74399 0.833859L10.99 4.08386C11.263 4.35486 11.354 4.72686 11.236 5.10286C11.121 5.46586 10.832 5.71086 10.444 5.77486C10.111 5.82586 9.80499 5.71586 9.54099 5.45386L7.99499 3.90386V8.66186C7.99299 9.37786 7.54699 9.62086 7.28099 9.70286C7.19299 9.72986 7.09599 9.74486 6.99599 9.74486C6.81999 9.74486 6.64499 9.69786 6.49099 9.60786C6.24699 9.46186 6.07899 9.22486 6.02599 8.95886C6.00599 8.85886 6.00099 8.75386 6.00099 8.66686L5.99899 3.90986ZM13.4044 8.68956C13.4624 8.82656 13.4934 8.98456 13.4934 9.14056L13.4944 9.28656C13.4957 9.51298 13.497 9.63368 13.4979 9.71853C13.4998 9.89187 13.5001 9.9156 13.4954 10.3856C13.4834 11.9596 12.3974 13.2256 10.8554 13.4656C10.6664 13.4946 10.4704 13.4976 10.3034 13.4976L8.30839 13.4996L3.59839 13.4966C2.03939 13.4916 0.779394 12.4126 0.533394 10.8726C0.507394 10.7076 0.502394 10.5436 0.502394 10.4056C0.500896 10.0236 0.500146 9.89046 0.500019 9.75728C0.499892 9.62371 0.500392 9.49013 0.501394 9.10556C0.504394 8.68756 0.723394 8.35356 1.10239 8.18656C1.45639 8.03256 1.83339 8.08556 2.13339 8.33556C2.29639 8.46956 2.49439 8.72156 2.49439 9.14756C2.493 9.66183 2.49306 9.68905 2.49357 9.907C2.49379 10.0018 2.49409 10.1327 2.49439 10.3556C2.49439 11.0316 2.96339 11.5036 3.63439 11.5046C5.87839 11.5066 8.12139 11.5066 10.3674 11.5046C11.0334 11.5036 11.5004 11.0356 11.5024 10.3676L11.5034 9.11356C11.5044 8.63156 11.8234 8.22656 12.2784 8.12756C12.7554 8.02556 13.2144 8.25856 13.4044 8.68956Z" fill="#053353"/>
</svg>
