<?xml version="1.0" encoding="utf-8"?>
<svg viewBox="0 0 78.729 88.947" xmlns="http://www.w3.org/2000/svg">
  <defs>
    <linearGradient id="paint0_linear" x1="62.3782" y1="11.9095" x2="62.3782" y2="30.544" gradientUnits="userSpaceOnUse" gradientTransform="matrix(1, 0, 0, 1, -0.281738, -0.470467)">
      <stop stop-color="#00385D"/>
      <stop offset="1" stop-color="#0071BC"/>
    </linearGradient>
    <linearGradient id="paint1_linear" x1="62.9369" y1="47.4467" x2="54.2824" y2="69.3911" gradientUnits="userSpaceOnUse" gradientTransform="matrix(1, 0, 0, 1, -0.281738, -0.470467)">
      <stop stop-color="#00385D"/>
      <stop offset="1" stop-color="#0071BC"/>
    </linearGradient>
  </defs>
  <path d="M 13.216 17.864 C 13.216 18.243 13.227 18.615 13.245 18.977 C 13.561 25.192 16.575 28.933 21.841 31.385 C 27.413 33.978 35.496 35.134 45.558 36.262 C 52.654 37.056 59.354 37.804 64.697 39.711 C 69.956 41.587 76.199 45.557 76.508 53.848 C 76.515 54.059 76.519 54.277 76.519 54.494 C 76.519 59.813 74.927 64.402 72.415 68.336 C 71.923 64.802 70.543 61.486 68.466 58.545 C 67.016 56.49 65.224 54.617 63.155 52.981 C 63.105 52.941 63.057 52.903 63.011 52.864 C 62.509 52.489 61.711 52.074 60.446 51.624 C 56.487 50.212 50.497 49.541 44.152 48.828 C 40.085 48.375 35.771 47.89 31.509 47.148 C 26.285 46.246 21.139 44.957 16.61 42.866 C 9.131 39.406 4.241 34.224 1.999 27.398 C 1.068 24.574 0.591 21.468 0.569 18.089 L 0.004 9.815 C -0.042 9.172 0.323 8.571 0.917 8.318 L 4.048 6.973 C 4.711 6.689 20.502 0 39.364 0 C 58.222 0 74.017 6.689 74.678 6.973 L 77.812 8.318 C 78.401 8.571 78.77 9.172 78.725 9.815 C 78.563 12.148 78.159 17.958 77.745 23.976 C 71.301 18.563 61.335 14.667 49.766 13.402 C 46.496 12.942 42.982 12.646 39.364 12.646 C 28.885 12.646 19.396 15.085 13.923 16.838 C 13.48 16.979 13.192 17.4 13.216 17.864 Z" fill="#0071BC"/>
  <path d="M 50.248 13.469 C 58.925 14.737 65.185 22.442 64.585 31.192 L 64.494 32.513 C 64.455 33.065 64.806 33.567 65.336 33.729 C 67.48 34.375 72.897 36.328 75.914 40.295 C 76.135 40.586 76.603 40.446 76.627 40.076 C 76.827 37.193 77.295 30.463 77.745 23.976 C 71.302 18.562 61.335 14.667 49.767 13.402 C 49.928 13.423 50.087 13.444 50.248 13.469 Z" fill="url(#paint0_linear)"/>
  <path d="M 1.957 39.374 C 1.999 41.84 2.111 46.173 2.111 46.173 C 2.111 47.377 2.16 48.568 2.26 49.741 C 2.895 57.544 5.656 64.629 10.395 70.743 C 13.058 74.171 16.343 77.295 20.226 80.066 C 28.822 86.204 37.435 88.452 37.797 88.543 L 39.366 88.947 L 39.369 88.947 L 40.937 88.543 C 42.08 88.248 63.302 82.616 72.415 68.336 C 71.923 64.802 70.543 61.485 68.466 58.545 C 67.015 56.49 65.224 54.617 63.154 52.98 C 63.871 53.577 63.871 54.08 63.871 54.495 C 63.871 56.712 63.284 58.858 62.111 60.923 C 60.214 64.288 56.768 67.447 51.81 70.363 C 50.227 71.297 48.631 72.112 47.114 72.818 C 42.066 75.162 36.196 74.93 31.358 72.182 C 30.125 71.484 28.845 70.683 27.575 69.773 C 23.591 66.931 20.527 63.674 18.394 60.035 C 17.657 58.771 17.028 57.46 16.511 56.099 C 15.725 54.027 15.201 51.846 14.945 49.559 C 14.9 49.123 14.625 48.75 14.221 48.582 C 12.363 47.802 6.91 45.129 2.687 39.142 C 2.603 39.023 2.479 38.969 2.358 38.969 C 2.152 38.969 1.952 39.124 1.957 39.374 Z" fill="url(#paint1_linear)"/>
</svg>