<svg width="45" height="49" viewBox="0 0 45 49" fill="none" xmlns="http://www.w3.org/2000/svg">
    <path d="M41.0852 22.5912L33.6969 13.9097C32.9884 13.0927 32.0775 12.6841 31.0654 12.582C30.0533 12.582 29.0412 12.8884 28.3328 13.7055C27.9279 14.114 27.7255 14.5225 27.5231 15.0332C26.9158 14.5225 26.1061 14.114 25.2965 14.114C24.8916 14.114 24.4868 14.114 24.1831 14.2161C24.1831 14.114 24.0819 14.114 24.0819 14.0119L20.4384 10.5393C19.1226 9.21153 16.6936 9.21153 15.3779 10.5393C14.973 10.9478 14.6694 11.4585 14.5682 11.9692C13.1513 10.6414 10.9246 10.6414 9.6089 12.0713C9.20406 12.4798 8.90043 12.9905 8.79922 13.5012C7.38228 12.1734 5.15566 12.1734 3.83993 13.6033C2.42299 15.0332 2.42299 17.2802 3.73872 18.7101C3.23267 18.9144 2.72662 19.1186 2.32178 19.5272C0.904841 20.9571 0.904841 23.204 2.32178 24.6339L2.92904 25.2467C2.42299 25.451 1.91694 25.6553 1.5121 26.0638C0.80363 26.7788 0.5 27.698 0.5 28.6172C0.5 29.5364 0.90484 30.4556 1.5121 31.1706L7.17986 36.8901L14.0621 43.8353C16.896 46.6951 20.5396 48.125 24.2844 48.125C26.4098 48.125 28.6364 47.6143 30.6606 46.593C34.3041 46.4908 37.7453 44.9588 40.3768 42.3033C45.5385 37.0944 45.9433 28.4129 41.0852 22.5912ZM16.7948 12.0713C17.4021 11.4585 18.4142 11.4585 19.0214 12.0713L22.3614 15.4418C21.4505 16.4631 21.1468 17.893 21.5517 19.1186L16.7948 14.3183C16.4912 14.0119 16.39 13.6033 16.39 13.1948C16.2888 12.6841 16.4912 12.2756 16.7948 12.0713ZM15.4791 42.4054L6.77502 33.6218L2.92904 29.7407C2.62541 29.4343 2.42299 29.0257 2.42299 28.6172C2.42299 28.2087 2.62541 27.8001 2.92904 27.4937C3.5363 26.8809 4.5484 26.8809 5.15566 27.4937L10.8234 33.2133C11.2283 33.6218 11.8355 33.6218 12.2404 33.2133C12.6452 32.8047 12.6452 32.1919 12.2404 31.7834L10.0137 29.5364L3.63751 23.1019C3.03025 22.4891 3.03025 21.4677 3.63751 20.8549C4.24477 20.2421 5.25687 20.2421 5.86413 20.8549L10.115 25.1446L14.467 29.5364C14.8718 29.945 15.4791 29.945 15.8839 29.5364C16.2888 29.1279 16.2888 28.5151 15.8839 28.1065L11.5319 23.7147L5.15566 17.2802C4.5484 16.6674 4.5484 15.646 5.15566 15.0332C5.76292 14.4204 6.77502 14.4204 7.38228 15.0332L9.6089 17.2802L18.2118 25.9617C18.6166 26.3702 19.2239 26.3702 19.6287 25.9617C20.0335 25.5531 20.0335 24.9403 19.6287 24.5318L15.2767 20.14L11.0258 15.8503C10.7222 15.5439 10.5198 15.1354 10.5198 14.7268C10.5198 14.3183 10.7222 13.9097 11.0258 13.6033C11.6331 12.9905 12.6452 12.9905 13.2525 13.6033L15.4791 15.8503L24.0819 24.5318L27.7255 28.2087C28.5352 29.0257 29.9521 27.9023 29.2437 26.8809L23.7783 18.9144C23.2723 18.1994 23.3735 17.2802 23.9807 16.7695C24.2844 16.4631 24.7904 16.2588 25.1952 16.2588C25.7013 16.2588 26.1061 16.4631 26.4098 16.8717L33.7981 25.5531C37.9477 30.4556 37.6441 37.9115 33.1908 42.5076C28.1303 47.3079 20.3372 47.3079 15.4791 42.4054ZM34.5066 43.7332C39.6683 38.4222 39.9719 29.7407 35.215 24.1233L29.5473 17.3823C29.0412 16.6674 29.1424 15.7482 29.7497 15.2375C30.0533 14.9311 30.5594 14.7268 30.9642 14.7268C31.4703 14.7268 31.8751 14.9311 32.1787 15.3396L39.5671 24.0211C43.7167 28.9236 43.4131 36.3795 38.9598 40.9755C37.6441 42.2012 36.1259 43.1204 34.5066 43.7332Z" fill="#24245D" stroke="#24245D" stroke-width="0.8"/>
    <path d="M21.3493 6.45388C21.5517 6.55602 21.6529 6.55601 21.8553 6.55601C22.1589 6.55601 22.5638 6.35174 22.7662 6.04534L24.2843 3.28769C24.588 2.77702 24.3856 2.16421 23.8795 1.8578C23.3735 1.55139 22.7662 1.75566 22.4626 2.26634L20.9444 5.02399C20.6408 5.53466 20.8432 6.14747 21.3493 6.45388Z" fill="#24245D"/>
    <path d="M17.503 5.33038C17.6042 5.33038 17.6042 5.33038 17.7054 5.33038C18.2115 5.33038 18.6163 5.02397 18.7175 4.5133L19.3248 1.24498C19.426 0.734301 19.1224 0.12149 18.5151 0.0193546C18.0091 -0.0827805 17.4018 0.223626 17.3006 0.836437L16.6933 4.20689C16.5921 4.71757 16.997 5.22824 17.503 5.33038Z" fill="#24245D"/>
    <path d="M24.0817 9.21151C24.2841 9.41578 24.5877 9.51791 24.7901 9.51791C24.9926 9.51791 25.2962 9.41578 25.4986 9.21151L27.9276 7.06667C28.3325 6.65813 28.4337 6.04532 28.0289 5.63678C27.624 5.22824 27.0168 5.1261 26.6119 5.53464L24.1829 7.67948C23.778 8.19016 23.778 8.80297 24.0817 9.21151Z" fill="#24245D"/>
    </svg>
