<svg width="24" height="39" viewBox="0 0 24 39" fill="none" xmlns="http://www.w3.org/2000/svg">
    <path d="M17.2735 14.8221L18.565 16.0836L9.63229 24.8086L5.48879 20.7615L6.78027 19.5L9.63229 22.2857L17.2735 14.8221ZM18.9955 39H5.00449C2.26009 39 0 36.7924 0 34.1119V4.88814C0 2.20755 2.26009 0 5.00449 0H18.9955C21.7399 0 24 2.20755 24 4.88814V34.1119C24 36.7924 21.7399 39 18.9955 39ZM5.00449 37.2129H18.9955C20.7713 37.2129 22.2242 35.7938 22.2242 34.0593V4.83559C22.2242 3.10108 20.7713 1.68195 18.9955 1.68195H5.00449C3.2287 1.68195 1.77579 3.10108 1.77579 4.83559V34.0593C1.77579 35.8464 3.2287 37.2129 5.00449 37.2129ZM9.79372 35.4259H14.2601V33.5337H9.79372V35.4259Z" fill="#333299" />
</svg>
