<svg width="19" height="19" viewBox="0 0 19 19" fill="none" xmlns="http://www.w3.org/2000/svg">
<path fill-rule="evenodd" clip-rule="evenodd" d="M9.5 0C4.2619 0 0 4.2619 0 9.5C0 14.7381 4.2619 19 9.5 19C14.7381 19 19 14.7381 19 9.5C19 4.2619 14.7381 0 9.5 0Z" fill="#FC473F"/>
<path fill-rule="evenodd" clip-rule="evenodd" d="M9.5 0C4.2619 0 0 4.2619 0 9.5C0 14.7381 4.2619 19 9.5 19C14.7381 19 19 14.7381 19 9.5C19 4.2619 14.7381 0 9.5 0Z" fill="url(#paint0_linear)" fill-opacity="0.15"/>
<path fill-rule="evenodd" clip-rule="evenodd" d="M9.49951 11.2405C10.111 11.2405 10.6066 10.7448 10.6066 10.1334L10.6066 5.36569L10.6009 5.25249C10.5442 4.69422 10.0727 4.25857 9.49951 4.25857C8.88807 4.25857 8.3924 4.75424 8.3924 5.36569L8.3924 10.1334L8.39811 10.2466C8.45481 10.8049 8.92628 11.2405 9.49951 11.2405ZM10.2846 12.8449C9.85114 12.4114 9.14833 12.4114 8.71485 12.8449C8.28137 13.2784 8.28137 13.9812 8.71485 14.4147C9.14833 14.8481 9.85114 14.8481 10.2846 14.4147C10.7181 13.9812 10.7181 13.2784 10.2846 12.8449Z" fill="white"/>
<defs>
<linearGradient id="paint0_linear" x1="9.5" y1="-9.5" x2="-9.5" y2="9.5" gradientUnits="userSpaceOnUse">
<stop offset="0.000290329" stop-color="white"/>
<stop offset="1" stop-color="white" stop-opacity="0.01"/>
</linearGradient>
</defs>
</svg>
