<svg width="35" height="45" viewBox="0 0 35 45" fill="none" xmlns="http://www.w3.org/2000/svg">
<path d="M17.1387 0C7.68867 0 0 7.68867 0 17.1387C0 20.8784 1.18125 24.4318 3.41895 27.4131L16.0822 44.4683C16.1139 44.5097 16.1622 44.5255 16.1974 44.5624C16.8302 45.24 17.7434 45.0695 18.1942 44.4683C21.8408 39.6027 28.5249 30.5156 31.0948 27.0879L31.0966 27.0835L31.1124 27.0624C33.1831 24.1532 34.2773 20.722 34.2773 17.1387C34.2773 7.68867 26.5887 0 17.1387 0Z" fill="#009391"/>
<path fill-rule="evenodd" clip-rule="evenodd" d="M17.14 7.64001C11.9019 7.64001 7.64001 11.9019 7.64001 17.14C7.64001 22.3781 11.9019 26.64 17.14 26.64C22.3781 26.64 26.64 22.3781 26.64 17.14C26.64 11.9019 22.3781 7.64001 17.14 7.64001ZM22.0439 15.7169L16.4999 21.2059C16.0878 21.618 15.4285 21.6455 14.9889 21.2334L12.0109 18.5851C11.5713 18.173 11.5439 17.4862 11.9285 17.0466C12.3406 16.607 13.0274 16.5796 13.4669 16.9917L15.6757 18.9532L20.4779 14.151C20.9175 13.7114 21.6043 13.7114 22.0439 14.151C22.4834 14.5906 22.4834 15.2774 22.0439 15.7169Z" fill="white"/>
</svg>
