<svg width="35" height="45" viewBox="0 0 35 45" fill="none" xmlns="http://www.w3.org/2000/svg">
<path d="M17.1387 0C7.68867 0 0 7.68867 0 17.1387C0 20.8784 1.18125 24.4318 3.41895 27.4131L16.0822 44.4683C16.1139 44.5097 16.1622 44.5255 16.1974 44.5624C16.8302 45.24 17.7434 45.0695 18.1942 44.4683C21.8408 39.6027 28.5249 30.5156 31.0948 27.0879L31.0966 27.0835L31.1124 27.0624C33.1831 24.1532 34.2773 20.722 34.2773 17.1387C34.2773 7.68867 26.5887 0 17.1387 0Z" fill="#0C3F62"/>
<path fill-rule="evenodd" clip-rule="evenodd" d="M11.3571 9C10.6076 9 10 9.60761 10 10.3571V26.6429C10 27.3924 10.6076 28 11.3571 28C12.1067 28 12.7143 27.3924 12.7143 26.6429V10.3571C12.7143 9.60761 12.1067 9 11.3571 9ZM14.9762 10.8095C14.4765 10.8095 14.0714 11.2146 14.0714 11.7143V19.8572C14.0714 20.3569 14.4765 20.7619 14.9762 20.7619H25.9555C26.3769 20.7619 26.5694 20.2364 26.2477 19.9642L21.7177 16.1311C21.5041 15.9504 21.5041 15.6211 21.7177 15.4404L26.2477 11.6073C26.5694 11.3351 26.3769 10.8095 25.9555 10.8095H14.9762Z" fill="white"/>
</svg>
