<svg width="26" height="26" viewBox="0 0 26 26" fill="none" xmlns="http://www.w3.org/2000/svg">
<path fill-rule="evenodd" clip-rule="evenodd" d="M0 13C0 5.83208 5.83208 0 13 0C20.1679 0 26 5.83208 26 13C26 20.1679 20.1679 26 13 26C5.83208 26 0 20.1679 0 13ZM14.5144 13.8668C14.5144 14.7035 13.8361 15.3818 12.9994 15.3818C12.215 15.3818 11.5698 14.7856 11.4922 14.0217L11.4844 13.8668V7.34252C11.4844 6.5058 12.1627 5.82752 12.9994 5.82752C13.7838 5.82752 14.429 6.42367 14.5066 7.18762L14.5144 7.34252V13.8668ZM11.9257 17.5772C12.5189 16.984 13.4806 16.984 14.0738 17.5772C14.667 18.1704 14.667 19.1321 14.0738 19.7253C13.4806 20.3185 12.5189 20.3185 11.9257 19.7253C11.3325 19.1321 11.3325 18.1704 11.9257 17.5772Z" fill="white"/>
</svg>
