<svg width="350" height="100" viewBox="0 0 350 100" fill="none" xmlns="http://www.w3.org/2000/svg">
<path d="M91.5843 0.0210953C91.5468 0.0585938 90.5811 0.124222 89.4279 0.171104C88.2747 0.217979 86.5683 0.302361 85.6402 0.358612C84.712 0.405495 83.5494 0.499252 83.0619 0.555504C82.5743 0.611755 81.6649 0.71489 81.0555 0.789894C80.4367 0.855522 79.3398 1.07116 78.6178 1.25867C77.8865 1.44618 76.9115 1.6337 76.4427 1.68057C75.9364 1.72746 75.327 1.85871 74.952 1.99934C74.5957 2.1306 73.855 2.31812 73.3019 2.42125C72.7487 2.515 72.0455 2.70251 71.7361 2.82439C71.4267 2.95566 70.8642 3.10567 70.4798 3.1713C70.1048 3.23692 69.561 3.40569 69.2797 3.54632C68.9891 3.69633 68.5859 3.85571 68.3797 3.91196C68.1734 3.96822 67.639 4.08073 67.1983 4.15573C66.7671 4.23074 65.8858 4.46513 65.2389 4.68076C64.6013 4.8964 63.7106 5.21517 63.27 5.38393C62.8199 5.56207 62.1449 5.78709 61.7605 5.88084C61.3761 5.98397 60.6917 6.25587 60.2229 6.49026C59.6322 6.79965 59.0041 7.02467 58.0759 7.25906C57.354 7.43719 56.407 7.74658 55.9664 7.94347C55.5257 8.14036 55.0663 8.33725 54.9351 8.37475C54.8038 8.41225 54.5788 8.49664 54.4194 8.56226C54.2694 8.63727 53.8475 8.81541 53.4818 8.96542C53.1256 9.11543 52.5912 9.32169 52.3099 9.40607C52.0286 9.49982 51.4098 9.75296 50.9411 9.97797C50.4817 10.1936 49.8254 10.4843 49.4878 10.6061C49.1597 10.728 48.4284 11.0562 47.8565 11.3187C47.294 11.5906 46.7595 11.8531 46.6845 11.9C46.6095 11.9469 46.3751 12.0781 46.1689 12.1906C45.9626 12.3031 45.5407 12.5094 45.2219 12.6406C44.9126 12.7813 44.425 13.0438 44.1438 13.2219C43.8625 13.4001 43.5156 13.6157 43.3562 13.7001C43.2062 13.7845 42.3624 14.1876 41.4905 14.6095C40.6092 15.022 39.831 15.4158 39.756 15.4908C39.6716 15.5565 39.0341 15.9315 38.3403 16.3159C37.6465 16.7003 36.8027 17.1503 36.4745 17.3191C36.1464 17.4878 35.7432 17.7222 35.5838 17.8441C35.4244 17.966 34.9932 18.2004 34.6369 18.3691C34.2712 18.5379 33.8775 18.7442 33.7462 18.8285C33.615 18.9223 33.0524 19.2317 32.4993 19.5223C31.9461 19.813 31.2523 20.2349 30.9523 20.4599C30.6616 20.6755 30.1272 21.0131 29.7616 21.2006C29.4053 21.3975 28.9834 21.66 28.824 21.7912C28.674 21.9319 28.1677 22.2881 27.699 22.5975C27.2396 22.9069 26.6676 23.3195 26.4333 23.507C26.1989 23.7039 25.7207 24.0226 25.3551 24.2195C24.9988 24.4164 24.4644 24.7914 24.1831 25.0633C23.9018 25.3258 23.3487 25.7477 22.9643 25.9915C22.5799 26.2353 22.0923 26.6009 21.8861 26.7978C21.6798 26.9947 21.2767 27.3322 20.9954 27.5479C20.7141 27.7635 20.1703 28.1666 19.7953 28.4479C19.4109 28.7385 18.8671 29.1886 18.5765 29.4511C18.2765 29.723 17.7233 30.1824 17.3389 30.4824C16.9545 30.7731 16.3545 31.2418 16.017 31.5043C15.6701 31.7762 14.9294 32.4044 14.3762 32.8919C13.8137 33.3795 13.1668 33.9889 12.9324 34.242C12.698 34.4858 11.9104 35.3108 11.1698 36.0609C10.4291 36.8109 9.56655 37.7673 9.25715 38.1798C8.93838 38.6017 8.42273 39.2298 8.11333 39.5955C7.79456 39.9518 7.29765 40.5424 7.00701 40.9081C6.71637 41.2643 6.30384 41.7425 6.10695 41.9581C5.90069 42.1738 5.57254 42.5957 5.37566 42.8957C5.17877 43.1957 4.83187 43.6739 4.62561 43.9645C4.40997 44.2458 4.14745 44.6302 4.04432 44.8083C3.95057 44.9771 3.65055 45.474 3.3974 45.8865C3.14426 46.3084 2.85362 46.8991 2.75986 47.1991C2.66611 47.5085 2.52547 47.8554 2.45047 47.9866C2.37546 48.1179 2.21608 48.371 2.0942 48.5492C1.97231 48.7273 1.77543 49.2336 1.64417 49.6743C1.52229 50.1149 1.3254 50.6774 1.21289 50.94C1.10038 51.1931 0.950374 51.5963 0.884745 51.8306C0.80974 52.065 0.725359 52.5057 0.697233 52.8151C0.65973 53.1245 0.481594 53.9495 0.303458 54.6433C-0.0246884 55.909 -0.0246884 55.909 0.0221896 57.4091C0.0690676 58.7405 0.125321 59.0686 0.444091 60.3624C0.650355 61.1594 0.978501 62.2376 1.17539 62.7532C1.51291 63.6158 1.59729 63.747 2.24421 64.4033C2.63798 64.7877 3.20052 65.2752 3.50991 65.4909C3.81931 65.6972 4.35372 66.1191 4.69124 66.4284C5.01938 66.7285 5.42253 67.0285 5.57254 67.0941C5.73193 67.1504 6.21008 67.2816 6.65074 67.3848C7.09139 67.4879 7.76643 67.6848 8.15083 67.8254C8.79775 68.0504 9.05089 68.0786 11.1135 68.1629C13.2699 68.2567 13.4199 68.2473 14.3012 68.0598C14.8169 67.9473 15.7451 67.816 16.3826 67.7692C17.292 67.6942 17.6858 67.6191 18.2202 67.4035C18.614 67.2441 19.2515 67.0847 19.7203 67.0285C20.1797 66.9722 20.6766 66.8597 20.836 66.7753C21.0048 66.6816 21.3235 66.5222 21.5579 66.4003C21.7923 66.2878 22.233 66.1472 22.5424 66.0816C22.8518 66.0253 23.4331 65.8284 23.8268 65.6503C24.23 65.4721 24.8957 65.2659 25.3176 65.1909C25.7395 65.1159 26.152 64.994 26.2364 64.919C26.3207 64.8533 26.527 64.7221 26.7051 64.6283C26.8833 64.544 27.2771 64.3846 27.5958 64.2814C27.9146 64.1783 28.6553 63.8595 29.2459 63.5783C29.8366 63.2876 30.896 62.7813 31.5898 62.4532C32.2836 62.1157 33.0899 61.7219 33.3712 61.5813C33.6525 61.4406 34.0462 61.2719 34.2431 61.2062C34.4494 61.1406 34.8432 60.9531 35.1338 60.7937C35.4338 60.625 35.8464 60.3812 36.0714 60.2406C36.287 60.0999 36.6808 59.903 36.9527 59.7905C37.2152 59.6874 37.4871 59.6218 37.5621 59.6499C37.6277 59.678 37.684 59.828 37.684 59.978C37.684 60.128 37.4496 60.8312 37.1683 61.525C36.887 62.2282 36.5308 63.0439 36.3808 63.3439C36.2308 63.6439 36.0339 64.1314 35.9495 64.4314C35.8557 64.7596 35.8088 65.1534 35.837 65.3878C35.8557 65.6221 36.0432 66.0816 36.287 66.5035C36.512 66.8972 36.8214 67.366 36.9714 67.5441C37.1214 67.7223 37.4965 68.0598 37.8152 68.3036C38.1434 68.5567 38.6309 68.8192 38.9497 68.9224C39.2591 69.0161 40.0466 69.138 40.7123 69.1942C41.7436 69.288 42.0249 69.2786 42.8218 69.1286C43.3187 69.0442 44.0969 68.8849 44.5469 68.7911C44.9969 68.688 45.5313 68.613 45.7189 68.613C45.9157 68.613 46.1314 68.6505 46.2064 68.6973C46.2908 68.7536 46.3095 68.8661 46.2814 68.9974C46.2439 69.138 46.0283 69.3349 45.6814 69.5411C45.3813 69.7193 45.0063 69.9818 44.8375 70.1224C44.6782 70.2631 44.125 70.6756 43.6187 71.0412C43.1124 71.4069 42.3155 71.9976 41.8467 72.3444C41.378 72.6913 40.7029 73.207 40.3466 73.4976C39.9904 73.7789 39.4935 74.1539 39.2309 74.3321C38.9778 74.5102 38.4903 74.904 38.1527 75.2228C37.8152 75.5415 37.3371 75.9447 37.0746 76.1134C36.8214 76.2916 36.2683 76.7322 35.8464 77.0979C35.4338 77.4541 34.515 78.1761 33.8025 78.6917C33.0899 79.2074 32.1805 79.8824 31.7867 80.2012C31.3929 80.5106 30.7366 81.0075 30.3241 81.2981C29.9116 81.5888 29.0584 82.2263 28.4396 82.6951C27.8115 83.1733 26.7801 83.9608 26.1426 84.4483C25.5051 84.9359 24.7925 85.5078 24.5581 85.7234C24.3237 85.9297 23.7143 86.4078 23.1987 86.7735C22.683 87.1391 22.1111 87.5985 21.933 87.7861C21.7548 87.9736 21.3329 88.3298 20.9954 88.5642C20.6579 88.7986 20.1797 89.1924 19.9172 89.4455C19.6641 89.6893 19.1953 90.0643 18.8859 90.28C18.5765 90.4956 18.1171 90.8519 17.8546 91.0675C17.6014 91.2832 17.1983 91.5832 16.9639 91.7426C16.7295 91.9019 16.0451 92.4832 15.4357 93.027C14.8263 93.5802 14.1043 94.1615 13.8418 94.3396C13.5699 94.5084 12.3323 95.5397 11.0854 96.6272C9.55717 97.968 8.7415 98.7461 8.57274 99.0274C8.4321 99.2618 8.33835 99.5431 8.3571 99.6556C8.37585 99.7681 8.45085 99.9087 8.53523 99.9556C8.64774 100.031 8.80713 100.012 9.11652 99.89C9.35091 99.8056 9.82907 99.4774 10.176 99.1774C10.5322 98.868 11.0573 98.4555 11.3385 98.2492C11.6198 98.0523 12.173 97.6211 12.5574 97.2929C12.9418 96.9741 13.8981 96.2335 14.6669 95.6616C15.445 95.0803 16.3357 94.3865 16.6451 94.1052C16.9639 93.8239 17.4983 93.3833 17.8171 93.1208C18.1452 92.8583 18.7734 92.427 19.214 92.1551C19.6547 91.8832 20.311 91.3769 20.6673 91.03C21.0329 90.6831 21.7455 90.1018 22.2611 89.7362C22.7768 89.3705 23.3487 88.9111 23.5268 88.7236C23.705 88.5361 24.0331 88.2548 24.2581 88.0955C24.4737 87.9454 24.9425 87.5704 25.2894 87.261C25.6363 86.9516 26.3395 86.4078 26.8552 86.0516C27.3708 85.7047 28.1021 85.1515 28.4771 84.8421C28.8522 84.5233 29.3959 84.1108 29.696 83.9233C29.9866 83.7358 30.6991 83.2201 31.2617 82.7701C31.8336 82.3295 32.6305 81.7294 33.043 81.4388C33.4556 81.1481 34.0275 80.67 34.3088 80.3793C34.59 80.0887 35.2276 79.5824 35.7151 79.2543C36.2026 78.9261 37.0746 78.2511 37.6371 77.7542C38.209 77.2666 38.9028 76.7041 39.1841 76.5166C39.4653 76.3197 39.9529 75.9541 40.2623 75.6915C40.5717 75.429 41.0873 75.0352 41.4061 74.8196C41.7248 74.604 42.3343 74.1539 42.7655 73.8258C43.1968 73.4883 43.9656 72.8695 44.4813 72.457C44.9969 72.0444 45.7751 71.4631 46.197 71.1819C46.6283 70.8912 47.3315 70.3568 47.744 69.9912C48.1659 69.6161 48.8503 69.063 49.2628 68.7536C49.6754 68.4442 50.2473 68.0035 50.5285 67.7692C50.8098 67.5254 51.1942 67.2347 51.3723 67.1129C51.5505 66.9816 51.7849 66.8035 51.888 66.7097C51.9911 66.616 52.5068 66.2597 53.0318 65.9128C53.5569 65.5659 54.2413 65.1159 54.5507 64.9096C54.8694 64.7033 55.4789 64.3471 55.9101 64.1127C56.332 63.8783 56.8289 63.5876 57.0071 63.4564C57.1852 63.3251 57.5321 63.1095 57.7759 62.9876C58.029 62.8563 58.4603 62.5563 58.7416 62.3126C59.0228 62.0688 59.4072 61.7594 59.6041 61.6094C59.7916 61.4688 60.1198 61.2062 60.3354 61.0187C60.5511 60.8406 60.9167 60.5875 61.1605 60.4749C61.5917 60.2593 61.6761 60.2499 64.3951 60.2312L67.1796 60.2124L67.8171 59.9124C68.1922 59.7343 68.6047 59.6124 68.8203 59.6124C69.0828 59.6124 69.2047 59.6593 69.2797 59.7905C69.3266 59.8937 69.3735 60.0999 69.3735 60.2593C69.3735 60.4093 69.2235 60.7843 69.0453 61.0937C68.8016 61.5063 68.6703 61.8907 68.5297 62.622C68.4266 63.1564 68.3422 63.7939 68.3422 64.0283C68.3422 64.2627 68.4078 64.6658 68.4828 64.9284C68.5578 65.1909 68.7078 65.5096 68.8203 65.6503C68.9328 65.7909 69.2141 65.9972 69.4485 66.1191C69.6923 66.2409 70.2079 66.4284 70.6017 66.541C70.9861 66.6441 71.558 66.7378 71.8768 66.7378C72.1862 66.7378 72.6456 66.6722 72.8987 66.5972C73.1519 66.5128 74.005 66.4097 74.7926 66.3628C75.5895 66.3159 76.3208 66.2503 76.4333 66.2128C76.5458 66.1847 76.9677 66.0065 77.3709 65.8284C77.774 65.6503 78.4491 65.4159 78.871 65.3221C79.3866 65.2002 79.9023 64.9846 80.4461 64.6752C80.8961 64.4127 81.2805 64.2064 81.3086 64.2064C81.3368 64.2064 81.7118 64.0002 82.1431 63.747C82.5743 63.4845 83.1931 63.0907 83.5306 62.8563C83.8682 62.622 84.5807 62.2001 85.1245 61.9282C85.6683 61.6469 86.8027 61.0562 87.6559 60.6156C88.9216 59.9499 89.3716 59.6499 90.1498 58.9748C90.6655 58.5248 91.5093 57.8873 92.0249 57.5591C92.5312 57.231 93.3094 56.7153 93.7501 56.4247C94.1907 56.134 94.8095 55.759 95.1283 55.5903C95.447 55.4309 95.8221 55.2996 95.9533 55.2996C96.0846 55.2996 96.1877 55.3371 96.1877 55.3746C96.1877 55.4121 96.0564 55.6559 95.8971 55.9184C95.7283 56.1715 95.1658 56.8372 94.6314 57.3904C94.0969 57.9529 93.6563 58.4404 93.6563 58.4779C93.6563 58.5248 93.3469 58.8155 92.9625 59.1436C92.5406 59.4905 92.0812 59.9874 91.8093 60.3906C91.5655 60.7656 91.0218 61.4219 90.6092 61.8625C90.1967 62.3032 89.7467 62.8938 89.606 63.1751C89.456 63.4658 89.3435 63.8502 89.3435 64.047C89.3435 64.2439 89.3998 64.5158 89.4748 64.6565C89.5498 64.7971 89.7092 65.0034 89.831 65.1065C89.9436 65.219 90.1404 65.3596 90.253 65.4159C90.3748 65.4721 90.8249 65.6315 91.2655 65.7534C91.7062 65.8847 92.1749 65.9878 92.3062 65.9878C92.4375 65.9878 92.8875 65.8472 93.3094 65.669C93.7313 65.5003 94.1813 65.3221 94.3126 65.2846C94.4438 65.2471 94.847 65.0877 95.2033 64.9377C95.5689 64.7877 96.0471 64.5721 96.2721 64.4689C96.5065 64.3658 96.8252 64.1877 96.9753 64.0658C97.1346 63.9439 97.6597 63.6533 98.1378 63.4095C98.616 63.1657 99.3098 62.7438 99.6754 62.4719C100.097 62.1626 100.538 61.9282 100.876 61.8344C101.241 61.7313 101.551 61.5531 101.869 61.2719C102.122 61.0469 102.422 60.8125 102.535 60.7562C102.647 60.6906 102.826 60.6437 102.929 60.6437C103.051 60.6437 103.332 60.9062 103.744 61.3938C104.082 61.8063 104.485 62.2282 104.626 62.3313C104.776 62.4438 105.123 62.5938 105.395 62.6688C105.666 62.7532 106.107 62.9126 106.36 63.0345C106.792 63.2407 106.97 63.2595 108.798 63.2876C110.561 63.3158 110.964 63.2876 112.595 63.0532C113.598 62.9032 114.93 62.6688 115.548 62.5094C116.167 62.3594 116.889 62.2376 117.142 62.2376C117.405 62.2376 118.033 62.1344 118.549 62.0125C119.064 61.8907 119.842 61.7407 120.283 61.6844C120.724 61.6375 121.464 61.4688 121.924 61.3187C122.458 61.15 123.077 61.0281 123.611 60.9906C124.08 60.9531 124.727 60.85 125.046 60.7468C125.365 60.6437 125.871 60.5124 126.171 60.4656C126.462 60.4093 127.23 60.3249 127.868 60.2687C128.702 60.1937 129.237 60.0905 129.799 59.8843C130.465 59.6499 130.718 59.6124 131.515 59.6124C132.312 59.6124 132.481 59.5843 132.687 59.4155C132.828 59.3124 132.987 59.0686 133.043 58.8717C133.137 58.5717 133.118 58.4498 132.959 58.0842C132.837 57.8029 132.659 57.5966 132.453 57.4841C132.218 57.3622 131.956 57.3154 131.393 57.3341C130.981 57.3341 130.268 57.4091 129.799 57.4935C129.34 57.5779 128.468 57.6435 127.868 57.6435C127.165 57.6435 126.621 57.6904 126.321 57.7841C125.955 57.8967 125.561 57.9154 124.408 57.8779C123.611 57.8498 122.514 57.7748 121.971 57.7279C121.427 57.6716 120.63 57.5685 120.189 57.5029C119.749 57.4279 118.849 57.2591 118.173 57.1279C117.508 56.9872 116.598 56.7716 116.167 56.6403C115.736 56.5091 115.051 56.3216 114.648 56.2278C114.245 56.134 113.645 55.9372 113.326 55.7871C112.998 55.6371 112.473 55.4403 112.145 55.3465C111.826 55.2527 111.423 55.0559 111.245 54.9058C111.011 54.7183 110.861 54.4746 110.72 54.0433C110.617 53.7151 110.439 53.3682 110.345 53.2839C110.242 53.1901 109.96 53.0963 109.717 53.0776C109.314 53.0401 109.21 53.0776 108.704 53.4245C108.179 53.7901 108.113 53.8183 107.598 53.7808C107.167 53.7433 106.82 53.6214 105.816 53.1151C105.141 52.7776 104.41 52.4682 104.204 52.4307C103.998 52.3932 103.744 52.3275 103.641 52.2713C103.538 52.215 103.407 52.1119 103.341 52.0275C103.276 51.9431 103.229 51.7463 103.229 51.5963C103.229 51.4369 103.294 51.2306 103.388 51.1275C103.473 51.015 103.904 50.6587 104.344 50.3118C104.785 49.9743 105.385 49.5524 105.676 49.3649C105.966 49.1773 106.463 48.7836 106.782 48.4929C107.101 48.1929 107.87 47.5835 108.498 47.1241C109.126 46.6647 109.867 46.1397 110.129 45.9615C110.401 45.7834 110.692 45.5115 110.767 45.3615C110.842 45.2115 110.907 44.9677 110.907 44.8177C110.907 44.6677 110.814 44.4052 110.692 44.227C110.561 44.0395 110.317 43.8426 110.045 43.7301C109.754 43.6082 109.52 43.5707 109.285 43.6176C109.06 43.6551 108.732 43.8801 108.263 44.302C107.888 44.6396 107.345 45.0896 107.063 45.2959C106.782 45.5115 106.248 45.9615 105.891 46.299C105.526 46.6366 104.644 47.3304 103.932 47.846C103.219 48.3617 102.441 48.943 102.216 49.1305C101.991 49.3274 101.766 49.4867 101.719 49.4867C101.682 49.4867 101.41 49.6743 101.119 49.9086C100.829 50.143 100.454 50.3962 100.266 50.4712C100.088 50.5462 99.7598 50.6118 99.5348 50.6118C99.2535 50.6118 99.0098 50.5368 98.7097 50.3399C98.4753 50.1899 97.7534 49.8149 97.0971 49.5055C96.4502 49.1961 95.7002 48.7929 95.4189 48.6148C95.147 48.4367 94.7157 48.1835 94.4532 48.0523C94.2001 47.921 93.7594 47.7241 93.4875 47.621C93.2156 47.5085 92.775 47.3116 92.5031 47.1803C92.2406 47.0397 91.6593 46.6553 91.228 46.3084C90.7874 45.9709 90.1404 45.4084 89.7748 45.0708C89.4091 44.7239 88.9216 44.3302 88.6872 44.1895C88.4528 44.0489 88.1434 43.8239 87.9934 43.702C87.8434 43.5707 87.4965 43.1863 87.2153 42.8488C86.9434 42.5019 86.5965 41.9206 86.4371 41.5644C86.2871 41.1987 86.0808 40.7393 85.9683 40.5331C85.8652 40.3362 85.7808 40.008 85.7808 39.8111C85.7808 39.5392 85.8558 39.3705 86.1183 39.0892C86.2964 38.8829 86.6433 38.6204 86.8871 38.5079C87.1309 38.386 87.4965 38.1329 87.7028 37.9454C87.909 37.7485 88.5185 37.1485 89.0622 36.6047C89.606 36.0609 90.1873 35.4796 90.3561 35.3108C90.5248 35.1421 91.0592 34.6171 91.5468 34.1576C92.0249 33.6889 92.7094 33.0795 93.0469 32.7982C93.3938 32.5169 94.1063 31.8606 94.6314 31.345C95.147 30.8293 95.7658 30.2574 95.9908 30.0793C96.2252 29.9011 96.5627 29.6199 96.7409 29.4698C96.9284 29.3105 97.294 29.0104 97.5472 28.8042C97.8097 28.5979 98.316 28.2416 98.6722 28.0166C99.0379 27.7916 99.3942 27.5572 99.4692 27.4916C99.5442 27.4353 99.8817 27.2478 100.219 27.0791C100.557 26.9197 101.082 26.6572 101.391 26.4978C101.701 26.3384 102.197 26.0384 102.488 25.8415C102.788 25.6446 103.379 25.3633 103.801 25.2133C104.232 25.0633 105.001 24.7821 105.516 24.6039C106.032 24.4164 106.876 24.0601 107.392 23.807C107.907 23.5445 108.517 23.282 108.751 23.2069C108.985 23.1319 109.36 23.0194 109.595 22.9538C109.829 22.8976 110.204 22.7757 110.439 22.7007C110.673 22.6163 111.076 22.4381 111.329 22.2881C111.592 22.1475 112.117 21.9412 112.501 21.8381C112.886 21.7256 113.561 21.4725 114.001 21.2568C114.442 21.0412 115.098 20.7693 115.455 20.638C115.82 20.5161 116.467 20.263 116.908 20.0849C117.348 19.9161 118.023 19.6817 118.408 19.588C118.792 19.4848 119.702 19.1942 120.424 18.9317C121.146 18.6785 122.092 18.341 122.514 18.1816C122.946 18.0222 123.602 17.8253 123.968 17.741C124.343 17.6566 124.821 17.5066 125.046 17.4128C125.261 17.3097 125.636 17.1503 125.871 17.0378C126.105 16.9347 126.621 16.7659 127.015 16.6534C127.408 16.5503 127.868 16.4284 128.018 16.3909C128.177 16.344 128.515 16.2503 128.768 16.1752C129.03 16.1002 129.49 15.9315 129.809 15.8002C130.118 15.669 130.643 15.5002 130.981 15.4158C131.309 15.3408 131.909 15.2377 132.312 15.1814C132.762 15.1158 133.343 14.947 133.803 14.7502C134.234 14.5533 134.881 14.3658 135.359 14.2907C135.809 14.2157 136.428 14.047 136.737 13.9157C137.047 13.7845 137.703 13.6157 138.19 13.5313C138.678 13.4469 139.315 13.3157 139.597 13.2313C139.878 13.1469 140.516 12.9594 141.003 12.8094C141.491 12.6594 142.194 12.5 142.55 12.4531C142.916 12.4063 143.544 12.3031 143.956 12.2187C144.369 12.1344 145.006 11.9937 145.363 11.8906C145.728 11.7875 146.825 11.5812 147.8 11.4218C148.785 11.2624 149.901 11.0749 150.285 10.9999C150.669 10.9249 151.56 10.7843 152.254 10.6811C152.948 10.5686 153.895 10.4468 154.363 10.3905C154.823 10.3343 155.713 10.1842 156.332 10.053C157.082 9.89359 158.001 9.79047 159.098 9.74358C160.082 9.68733 161.095 9.58421 161.629 9.47169C162.117 9.35918 163.045 9.24668 163.692 9.21855C164.339 9.18105 165.67 9.05917 166.645 8.93729C167.63 8.81541 169.017 8.68414 169.739 8.65602C170.461 8.62789 171.221 8.56226 171.427 8.50601C171.633 8.44975 172.561 8.36537 173.49 8.30912C174.418 8.25287 175.412 8.20599 175.693 8.20599C175.974 8.20599 176.799 8.25287 177.521 8.30912C178.243 8.36537 179.171 8.49664 179.584 8.59976C179.996 8.7029 180.502 8.85291 180.709 8.93729C180.915 9.02167 181.215 9.15292 181.384 9.22793C181.543 9.30293 181.721 9.35918 181.778 9.35918C181.834 9.35918 182.096 9.46232 182.378 9.58421C182.649 9.70609 183.128 9.99673 183.437 10.2311C183.737 10.4655 184.121 10.7937 184.29 10.9718C184.459 11.1405 184.665 11.4499 184.759 11.6562C184.9 11.9656 184.918 12.2562 184.9 13.3344C184.89 14.2439 184.825 14.8627 184.693 15.4158C184.59 15.8471 184.421 16.3815 184.328 16.5971C184.234 16.8222 184.009 17.2347 183.831 17.516C183.643 17.7972 183.353 18.3598 183.165 18.7629C182.978 19.1661 182.603 19.7567 182.321 20.0755C182.049 20.3943 181.534 21.0974 181.178 21.6412C180.831 22.185 180.39 22.8507 180.202 23.1319C180.015 23.4132 179.359 24.1539 178.74 24.7821C177.868 25.6727 177.521 25.954 177.193 26.0665C176.958 26.1415 176.537 26.2821 176.255 26.3759C175.974 26.4697 175.421 26.7134 175.027 26.9103C174.633 27.1072 174.258 27.2666 174.193 27.2666C174.127 27.2666 173.471 27.576 172.749 27.951C172.018 28.3354 171.239 28.7761 171.005 28.9261C170.771 29.0854 170.33 29.3011 170.021 29.4136C169.711 29.5261 169.149 29.7886 168.774 29.9949C168.399 30.2011 167.789 30.5574 167.433 30.7918C167.077 31.0262 166.233 31.495 165.558 31.8325C164.883 32.17 164.067 32.6388 163.739 32.8732C163.411 33.117 162.801 33.5201 162.37 33.7826C161.939 34.0358 161.404 34.392 161.17 34.5702C160.945 34.7389 160.495 35.0014 160.186 35.1421C159.867 35.2827 159.473 35.5171 159.295 35.6671C159.117 35.8171 158.629 36.1828 158.217 36.4734C157.795 36.7734 157.138 37.2328 156.754 37.4954C156.37 37.7673 155.929 38.0954 155.77 38.236C155.62 38.3767 155.282 38.6017 155.029 38.7517C154.766 38.8923 154.391 39.1736 154.185 39.3611C153.97 39.5486 153.51 39.8955 153.144 40.1299C152.788 40.3643 152.226 40.7862 151.907 41.0581C151.597 41.3394 150.979 41.8831 150.547 42.2769C150.126 42.6707 149.582 43.1113 149.347 43.2707C149.113 43.4301 148.804 43.702 148.644 43.8614C148.494 44.0301 148.194 44.2927 147.988 44.4427C147.791 44.5927 147.003 45.249 146.253 45.9053C145.503 46.5522 144.238 47.7429 143.441 48.5492C142.634 49.3461 141.734 50.293 141.425 50.6587C141.116 51.015 140.609 51.5775 140.291 51.8963C139.944 52.2525 139.484 52.8807 139.128 53.4901C138.8 54.0527 138.359 54.7558 138.153 55.0652C137.815 55.5621 137.768 55.6934 137.768 56.1622C137.768 56.5559 137.815 56.7622 137.965 56.9591C138.068 57.0997 138.303 57.3154 138.472 57.4279C138.697 57.5873 138.922 57.6435 139.259 57.6435C139.662 57.6435 139.925 57.5498 140.731 57.1466C141.266 56.8841 141.837 56.6028 141.988 56.5466C142.147 56.4809 142.559 56.2372 142.906 56.0122C143.263 55.7871 143.666 55.5528 143.797 55.5059C143.938 55.4496 144.294 55.3371 144.603 55.2434C144.903 55.1496 145.269 54.9902 145.4 54.8777C145.531 54.7652 146.15 54.4183 146.769 54.1089C147.388 53.7995 148.025 53.4807 148.175 53.3964C148.335 53.312 148.71 53.1339 149.01 53.0026C149.31 52.8713 149.807 52.5713 150.097 52.3463C150.397 52.1213 150.866 51.7369 151.138 51.4931C151.419 51.2587 151.954 50.9212 152.329 50.7431C152.713 50.5743 153.294 50.2368 153.632 50.0024C153.97 49.768 154.532 49.4305 154.879 49.2524C155.235 49.0742 155.76 48.7086 156.051 48.4367C156.351 48.1648 156.66 47.9023 156.745 47.8554C156.829 47.8085 157.27 47.471 157.729 47.1053C158.179 46.7491 158.817 46.2522 159.145 46.0178C159.464 45.7834 159.979 45.4084 160.279 45.1833C160.589 44.949 160.889 44.7052 160.954 44.6396C161.02 44.5739 161.573 44.152 162.173 43.7114C162.773 43.2613 163.495 42.6801 163.758 42.4082C164.03 42.1363 164.639 41.6112 165.117 41.2362C165.595 40.8706 166.205 40.3174 166.458 40.0174C166.72 39.7267 167.077 39.3892 167.255 39.2861C167.433 39.183 168.07 38.5736 168.67 37.936C169.27 37.2985 170.049 36.5484 170.405 36.2672C170.761 35.9859 171.455 35.3108 171.943 34.7858C172.43 34.2514 173.302 33.342 173.874 32.7701C174.446 32.1888 175.458 31.2231 176.133 30.6043C176.799 29.9949 177.53 29.273 177.755 28.9917C177.971 28.7198 178.393 28.2698 178.693 27.9979C178.984 27.726 179.415 27.3416 179.64 27.1447C179.865 26.9478 180.437 26.6103 180.896 26.3853C181.365 26.1696 181.909 25.9446 182.115 25.8884C182.321 25.8321 182.912 25.6634 183.428 25.504C183.943 25.354 184.553 25.1758 184.787 25.1196C185.021 25.0633 185.809 24.8946 186.55 24.7352C187.29 24.5852 188.04 24.4539 188.219 24.4539C188.397 24.4539 188.8 24.5383 189.119 24.6508C189.428 24.7539 189.934 25.0071 190.225 25.2039C190.525 25.4102 190.863 25.6821 190.966 25.8227C191.078 25.9634 191.209 26.2353 191.266 26.4228C191.35 26.704 191.341 27.0134 191.219 27.8947C191.134 28.5042 191.013 29.1511 190.956 29.3292C190.9 29.5073 190.647 30.0324 190.384 30.5012C190.131 30.9606 189.803 31.495 189.662 31.6731C189.522 31.8606 189.287 32.2356 189.137 32.5169C188.997 32.7982 188.669 33.3232 188.397 33.6889C188.134 34.0451 187.815 34.5139 187.675 34.7202C187.544 34.9264 187.103 35.4515 186.709 35.8921C186.306 36.3328 185.865 36.8484 185.715 37.0453C185.575 37.2422 185.096 37.7204 184.656 38.1141C184.206 38.4985 183.85 38.8454 183.85 38.8923C183.85 38.9298 183.662 39.2017 183.428 39.483C183.203 39.7643 182.865 40.0924 182.687 40.1955C182.518 40.308 182.274 40.5331 182.162 40.7018C182.049 40.8612 181.693 41.2081 181.384 41.4706C181.065 41.7238 180.577 42.1832 180.296 42.4925C180.006 42.7926 179.584 43.1676 179.349 43.327C179.115 43.4864 178.674 43.8426 178.365 44.1333C178.055 44.4239 177.127 45.1927 176.302 45.849C175.477 46.5053 174.418 47.3491 173.94 47.7241C173.471 48.0992 172.496 48.868 171.783 49.4399C171.071 50.0024 170.33 50.6212 170.133 50.8087C169.946 50.9962 169.496 51.3244 169.149 51.5306C168.802 51.7463 168.324 52.0744 168.08 52.2713C167.836 52.4682 167.377 52.8338 167.058 53.0963C166.739 53.3495 166.148 53.8745 165.736 54.2402C165.333 54.6152 164.845 55.009 164.648 55.1215C164.461 55.234 164.189 55.4684 164.048 55.6559C163.861 55.8903 163.786 56.0965 163.786 56.3497C163.786 56.5466 163.851 56.8372 163.926 56.9778C164.001 57.1279 164.198 57.2966 164.367 57.3716C164.536 57.4466 164.873 57.5029 165.108 57.4935C165.389 57.4935 165.689 57.3997 165.98 57.2404C166.223 57.1091 166.636 56.8185 166.889 56.5934C167.152 56.3684 167.714 55.8715 168.136 55.4778C168.549 55.084 169.233 54.4464 169.646 54.062C170.058 53.6683 170.63 53.2089 170.921 53.0307C171.211 52.8432 171.652 52.5151 171.905 52.29C172.158 52.065 172.533 51.7463 172.739 51.5963C172.946 51.4369 173.321 51.1181 173.583 50.8837C173.836 50.6493 174.202 50.3587 174.38 50.2368C174.558 50.1149 174.943 49.7961 175.224 49.5336C175.505 49.2617 176.124 48.7648 176.583 48.4179C177.052 48.0617 177.596 47.6022 177.812 47.3866C178.018 47.1803 178.393 46.8241 178.655 46.6084C178.909 46.3928 179.537 45.9334 180.052 45.5865C180.568 45.2396 181.478 44.5364 182.068 44.0114C182.659 43.4957 183.4 42.8113 183.709 42.4925C184.018 42.1832 184.525 41.7519 184.843 41.5362C185.153 41.33 185.64 40.9362 185.931 40.6549C186.24 40.3549 186.737 40.0174 187.187 39.7924C187.59 39.5955 188.078 39.3142 188.256 39.1736C188.434 39.033 188.856 38.7611 189.194 38.5736C189.531 38.386 190.178 37.9173 190.647 37.5329C191.106 37.1485 191.763 36.6984 192.1 36.539C192.428 36.3797 192.859 36.1171 193.038 35.9484C193.225 35.7796 193.75 35.414 194.21 35.1233C194.678 34.8421 195.325 34.4858 195.663 34.3358C195.991 34.1858 196.497 33.867 196.769 33.6232C197.05 33.3795 197.585 33.0138 197.95 32.8169C198.316 32.62 198.869 32.3763 199.169 32.2825C199.479 32.1888 199.938 31.9638 200.201 31.7762C200.463 31.5981 201.054 31.2606 201.523 31.0168C201.982 30.7824 202.657 30.398 203.013 30.1824C203.37 29.9574 204.045 29.6292 204.513 29.4511C204.982 29.273 205.667 29.0292 206.023 28.9073C206.388 28.7948 206.998 28.551 207.382 28.3635C207.767 28.1854 208.432 27.9229 208.854 27.7822C209.276 27.6416 209.867 27.3791 210.167 27.201C210.467 27.0134 210.964 26.7509 211.273 26.6009C211.583 26.4509 211.967 26.329 212.126 26.329C212.276 26.329 212.454 26.3759 212.52 26.4415C212.586 26.5072 212.633 26.6947 212.633 26.8634C212.633 27.0416 212.576 27.2947 212.501 27.4353C212.426 27.576 212.201 27.8385 212.004 28.026C211.808 28.2135 211.498 28.4573 211.32 28.5792C211.142 28.701 210.579 29.2073 210.082 29.6949C209.586 30.1918 208.676 31.0918 208.067 31.6919C207.457 32.2919 206.679 33.0138 206.342 33.2857C206.004 33.567 204.691 34.8139 203.435 36.0609C202.179 37.2985 200.979 38.4423 200.773 38.5923C200.566 38.7423 200.172 39.1173 199.91 39.4267C199.638 39.7361 199.047 40.308 198.597 40.6831C198.138 41.0675 197.397 41.7331 196.938 42.1738C196.478 42.6144 195.597 43.4582 194.988 44.0489C194.378 44.6396 193.769 45.2302 193.638 45.3615C193.497 45.4927 192.644 46.3553 191.734 47.2835C190.825 48.221 189.85 49.2617 189.569 49.618C189.287 49.9649 189.006 50.3868 188.941 50.5462C188.884 50.7149 188.828 50.9681 188.828 51.1275C188.819 51.2775 188.894 51.5588 188.987 51.7275C189.081 51.9338 189.306 52.14 189.559 52.2713C189.812 52.4026 190.141 52.4869 190.403 52.4869C190.637 52.4869 191.2 52.3838 191.65 52.2619C192.1 52.14 192.634 51.9431 192.831 51.8213C193.038 51.6994 193.516 51.4087 193.9 51.1837C194.275 50.9587 194.828 50.6024 195.138 50.3962C195.438 50.1899 196.094 49.843 196.591 49.6368C197.088 49.4211 197.819 49.0742 198.213 48.8492C198.607 48.6336 199.197 48.2773 199.526 48.0523C199.854 47.8273 200.472 47.4616 200.913 47.246C201.354 47.021 202.179 46.5428 202.741 46.1678C203.313 45.7928 204.026 45.3427 204.335 45.174C204.645 45.0052 205.254 44.6489 205.695 44.3958C206.135 44.1427 206.96 43.6551 207.523 43.3176C208.095 42.9707 208.807 42.5019 209.117 42.2675C209.426 42.0238 209.867 41.7238 210.101 41.5925C210.336 41.4612 210.617 41.3206 210.739 41.2831C210.861 41.2456 211.245 41.0487 211.583 40.8518C211.929 40.6456 212.651 40.2705 213.186 40.0174C213.72 39.7549 214.461 39.3142 214.827 39.0423C215.192 38.7611 215.895 38.3298 216.383 38.0766C216.87 37.8235 217.658 37.3641 218.117 37.0547C218.586 36.7453 219.177 36.3703 219.43 36.2203C219.692 36.0796 219.964 35.9109 220.039 35.8453C220.114 35.7796 220.733 35.4233 221.399 35.0483C222.074 34.6827 222.665 34.3264 222.711 34.2701C222.768 34.2045 222.908 34.0733 223.04 33.9889C223.161 33.9045 223.358 33.8295 223.48 33.8295C223.593 33.8295 223.715 33.8764 223.743 33.9326C223.78 33.9795 223.574 34.2608 223.283 34.5514C222.993 34.8327 222.524 35.3483 222.252 35.6952C221.971 36.0328 221.418 36.6328 221.005 37.0172C220.593 37.4016 219.974 37.9641 219.627 38.2642C219.289 38.5736 218.867 39.0142 218.708 39.2486C218.549 39.4924 217.986 40.1299 217.48 40.6737C216.964 41.2175 216.242 42.0613 215.886 42.5488C215.52 43.0363 215.155 43.5051 215.07 43.5801C214.986 43.6551 214.761 43.9176 214.564 44.1614C214.376 44.3958 214.058 44.9677 213.87 45.4271C213.608 46.074 213.533 46.3834 213.523 46.8616C213.523 47.3491 213.57 47.5272 213.739 47.771C213.851 47.9304 214.18 48.1835 214.461 48.3148C214.958 48.5586 215.005 48.5679 216.402 48.5304C217.545 48.5023 217.949 48.4554 218.399 48.296C218.708 48.1929 219.317 47.996 219.758 47.8554C220.199 47.7241 220.771 47.4804 221.024 47.3304C221.286 47.1803 221.933 46.8428 222.477 46.5803C223.011 46.3084 223.715 45.9896 224.024 45.8584C224.333 45.7271 225.074 45.3709 225.665 45.0615C226.255 44.7614 227.015 44.3583 227.343 44.1802C227.784 43.9458 228.046 43.8614 228.281 43.8801C228.571 43.9083 228.618 43.9458 228.646 44.1708C228.674 44.3958 228.562 44.5552 227.896 45.2115C227.465 45.6334 227.005 46.1959 226.865 46.4491C226.649 46.8428 226.602 47.0866 226.546 47.921C226.49 48.8305 226.499 48.943 226.659 49.1211C226.752 49.2336 227.005 49.4024 227.221 49.4867C227.427 49.5805 227.84 49.7024 228.14 49.768C228.543 49.8524 228.881 49.8524 229.537 49.768C230.015 49.7118 230.69 49.5993 231.046 49.5242C231.403 49.4492 231.993 49.3461 232.359 49.2992C232.743 49.2524 233.296 49.093 233.653 48.9242C234.018 48.7648 234.59 48.5961 235.012 48.5398C235.415 48.4836 235.959 48.371 236.212 48.296C236.475 48.2117 236.728 48.1179 236.775 48.0804C236.831 48.0429 237.272 47.8835 237.759 47.7241C238.247 47.5741 239.016 47.3397 239.456 47.1991C239.906 47.0585 240.816 46.6741 241.472 46.3459C242.531 45.8115 242.747 45.7365 243.206 45.7365C243.638 45.7365 243.797 45.7834 244.116 46.0084C244.322 46.1584 244.519 46.3365 244.557 46.3834C244.585 46.4397 244.782 46.5709 244.988 46.6834C245.194 46.7866 245.625 46.9553 245.944 47.0585C246.272 47.1616 247.013 47.2835 247.65 47.3304C248.269 47.3772 248.944 47.4616 249.151 47.5272C249.366 47.5835 249.751 47.6116 250.041 47.5741C250.323 47.546 251.026 47.4616 251.607 47.3866C252.179 47.3116 252.816 47.1991 253.023 47.1428C253.229 47.096 254.138 46.9647 255.048 46.8616C255.948 46.7584 256.895 46.6084 257.139 46.5241C257.382 46.4397 257.767 46.2897 257.992 46.1959C258.207 46.0928 258.676 45.9428 259.023 45.8584C259.37 45.7834 259.998 45.6146 260.411 45.4927C260.833 45.3709 261.273 45.2677 261.376 45.2677C261.489 45.2677 261.676 45.3615 261.798 45.4834C261.93 45.6146 262.08 45.9615 262.183 46.3928C262.276 46.7772 262.426 47.246 262.52 47.4241C262.605 47.6116 262.867 47.9304 263.092 48.146C263.327 48.3523 263.673 48.5773 263.88 48.6523C264.077 48.7179 264.517 48.7742 264.855 48.7742C265.192 48.7648 265.989 48.7461 266.636 48.7179C267.283 48.6898 268.23 48.5961 268.746 48.5211C269.261 48.4367 270.171 48.3054 270.761 48.221C271.352 48.1367 272.102 48.0335 272.421 47.9773C272.749 47.9304 273.377 47.7429 273.827 47.5741C274.287 47.4054 274.887 47.2085 275.168 47.1428C275.449 47.0866 275.871 46.9835 276.105 46.9272C276.34 46.8803 276.93 46.6178 277.418 46.3647C277.906 46.1115 278.374 45.849 278.449 45.7834C278.524 45.7178 278.927 45.4927 279.34 45.2771C279.753 45.0708 280.399 44.7896 280.784 44.6489C281.168 44.5177 281.74 44.2645 282.059 44.0864C282.425 43.8895 282.762 43.7676 282.987 43.7676C283.175 43.7676 283.7 43.9083 284.15 44.0864C284.6 44.2552 285.181 44.4427 285.434 44.5083C285.697 44.5646 286.372 44.7146 286.934 44.8364C287.506 44.9583 288.322 45.1083 288.762 45.1646C289.203 45.2208 290.113 45.3334 290.778 45.4084C291.453 45.4834 292.71 45.549 293.572 45.549C294.763 45.549 295.316 45.5865 295.907 45.7271C296.338 45.8209 297.191 45.924 297.801 45.9615C298.41 45.9896 299.357 46.0928 299.901 46.1772C300.763 46.3084 301.045 46.3084 302.02 46.2147C303.032 46.1115 303.229 46.1115 303.857 46.2615C304.288 46.3553 305.02 46.4303 305.732 46.4397C306.379 46.4491 307.542 46.5053 308.311 46.5616C309.089 46.6178 310.101 46.7584 310.561 46.8616C311.273 47.0397 311.536 47.0585 312.248 46.9928C312.717 46.946 313.664 46.9272 314.358 46.946C315.052 46.9553 316.355 47.0491 317.246 47.1522C318.136 47.246 319.093 47.3304 319.374 47.3304C319.646 47.3304 320.161 47.3866 320.518 47.4616C320.865 47.5366 321.811 47.6398 322.608 47.7054C323.405 47.7616 324.634 47.8741 325.327 47.9491C326.021 48.0335 327.184 48.1554 327.906 48.2304C328.628 48.3148 329.959 48.4086 330.859 48.4554C332.293 48.5211 332.593 48.5586 333.25 48.7929L334 49.0555L337.347 49.0742C340.45 49.093 340.731 49.1023 341.285 49.2899C341.707 49.4305 342.138 49.4867 342.813 49.4961C343.328 49.4961 343.985 49.5149 344.266 49.5149C344.547 49.5242 345.185 49.468 345.672 49.393C346.16 49.318 346.835 49.2617 347.172 49.2617C347.51 49.2711 348.082 49.3086 348.438 49.3461C349.038 49.4024 349.123 49.393 349.423 49.1867C349.666 49.018 349.751 48.8961 349.751 48.6898C349.751 48.4836 349.676 48.3804 349.432 48.2304C349.132 48.0523 348.954 48.0429 346.385 48.0617C344.763 48.071 343.432 48.0335 343.094 47.9773C342.785 47.921 342.157 47.8179 341.688 47.7335C341.228 47.6585 340 47.5647 338.969 47.5179C337.938 47.4804 336.634 47.396 336.062 47.3397C335.5 47.2835 334.881 47.1991 334.703 47.1428C334.525 47.096 333.775 46.9741 333.034 46.8616C332.284 46.7584 331.206 46.6741 330.596 46.6741C329.996 46.6741 329.012 46.6084 328.421 46.5334C327.831 46.4491 326.902 46.3178 326.359 46.2428C325.815 46.1584 324.802 46.0647 324.108 46.0178C323.415 45.9803 322.252 45.8584 321.53 45.7459C320.808 45.6427 319.505 45.474 318.624 45.3615C317.752 45.2584 316.167 45.1271 315.108 45.0802C314.048 45.0333 312.717 44.9865 312.136 44.9865C311.564 44.9865 310.758 44.9208 310.354 44.8458C309.951 44.7614 309.014 44.6302 308.264 44.5552C307.514 44.4708 305.91 44.377 304.701 44.3302C303.492 44.2927 302.432 44.227 302.357 44.1989C302.282 44.1708 301.307 44.1239 300.201 44.1052C298.504 44.0676 298.091 44.0301 297.576 43.8708C297.182 43.7395 296.6 43.6551 295.935 43.627C295.363 43.6082 294.669 43.5426 294.397 43.4864C294.116 43.4395 293.385 43.3926 292.757 43.3926C292.138 43.3926 291.228 43.3457 290.75 43.2989C290.272 43.2426 289.4 43.0832 288.819 42.9332C288.237 42.7832 287.487 42.6238 287.159 42.5957C286.831 42.5582 286.353 42.4738 286.1 42.3988C285.847 42.3238 285.087 41.9769 284.403 41.6206C283.728 41.2643 283.025 40.9456 282.846 40.9081C282.65 40.8706 282.406 40.8987 282.19 40.9925C282.003 41.0675 281.731 41.2925 281.581 41.4894C281.431 41.6862 281.196 41.9675 281.056 42.1269C280.924 42.2769 280.559 42.5488 280.259 42.7269C279.959 42.8957 279.368 43.2707 278.946 43.552C278.524 43.8333 277.849 44.1802 277.446 44.3302C277.043 44.4708 276.443 44.6958 276.105 44.8271C275.768 44.9583 275.224 45.1271 274.887 45.2115C274.549 45.3052 274.071 45.4365 273.808 45.5115C273.555 45.5865 273.105 45.7084 272.824 45.7834C272.543 45.849 271.736 46.0178 271.043 46.149C270.349 46.2803 269.421 46.4397 268.989 46.4959C268.371 46.5897 267.864 46.5897 266.514 46.4959C265.577 46.4303 264.742 46.3365 264.639 46.2897C264.545 46.2334 264.386 46.0553 264.292 45.8959C264.189 45.7271 264.105 45.4927 264.105 45.3615C264.105 45.2302 264.189 44.9958 264.283 44.8364C264.377 44.6771 264.611 44.452 264.789 44.3395C264.977 44.227 265.408 44.0395 265.764 43.9176C266.111 43.7958 266.674 43.5707 267.011 43.4114C267.349 43.252 268.174 42.8769 268.839 42.5863C269.514 42.2957 270.349 41.9581 270.705 41.8363C271.052 41.7144 271.633 41.4519 271.98 41.2456C272.327 41.0487 272.89 40.7956 273.227 40.6831C273.621 40.5518 274.062 40.308 274.427 40.008C274.746 39.7549 275.271 39.4174 275.58 39.2673C275.899 39.1173 276.471 38.7517 276.855 38.4517C277.24 38.161 277.634 37.8516 277.718 37.7673C277.802 37.6922 278.112 37.4391 278.412 37.2047C278.712 36.9703 279.171 36.5672 279.434 36.3047C279.79 35.9578 279.949 35.7234 280.024 35.4046C280.09 35.1608 280.137 34.8608 280.137 34.7296C280.137 34.5983 280.071 34.3264 279.987 34.1201C279.903 33.9139 279.706 33.642 279.546 33.5201C279.378 33.3982 278.927 33.1545 278.543 32.9857C277.99 32.7419 277.681 32.6669 277.09 32.6294C276.584 32.6107 275.984 32.6575 275.262 32.7888C274.39 32.9482 273.996 33.0701 273.199 33.4639C272.655 33.7264 271.924 34.092 271.558 34.2701C271.202 34.4577 270.883 34.6358 270.855 34.6733C270.827 34.7108 270.443 34.9546 270.002 35.2171C269.514 35.5077 268.802 36.0609 268.164 36.6609C267.592 37.1953 266.777 37.9173 266.364 38.2735C265.942 38.6204 265.445 39.108 265.249 39.333C265.061 39.5674 264.639 40.0455 264.311 40.4018C263.936 40.8143 263.589 41.33 263.336 41.8456C263.12 42.2863 262.83 42.7551 262.68 42.8863C262.53 43.0082 262.314 43.1301 262.201 43.1582C262.089 43.177 261.676 43.2801 261.292 43.3832C260.908 43.477 260.251 43.6551 259.839 43.7676C259.426 43.8708 258.601 44.1333 258.011 44.3302C257.42 44.5271 256.698 44.7333 256.417 44.7896C256.135 44.8458 255.16 44.949 254.26 45.0333C253.36 45.1177 252.245 45.2302 251.776 45.2771C251.316 45.3334 250.698 45.399 250.407 45.4271C250.069 45.4552 249.694 45.4271 249.357 45.324C249.057 45.2396 248.494 45.174 247.997 45.174C247.247 45.174 247.116 45.1458 246.9 44.9583C246.685 44.7802 246.666 44.7146 246.75 44.4989C246.797 44.3583 247.069 44.0864 247.341 43.8801C247.613 43.6833 248.176 43.3645 248.588 43.1863C249.001 43.0082 249.657 42.6613 250.041 42.4175C250.426 42.1832 250.782 41.9863 250.838 41.9863C250.894 41.9863 251.223 41.7613 251.56 41.4894C251.907 41.2268 252.573 40.7768 253.06 40.4955C253.538 40.2143 254.27 39.7924 254.682 39.558C255.095 39.3142 255.789 38.8829 256.229 38.5829C256.67 38.2923 257.279 37.861 257.589 37.636C257.898 37.4016 258.432 37.0453 258.77 36.8391C259.107 36.6328 259.576 36.239 259.801 35.9671C260.036 35.6952 260.326 35.3202 260.458 35.1421C260.636 34.8702 260.683 34.7014 260.683 34.1858C260.683 33.6514 260.645 33.5295 260.448 33.3138C260.317 33.1732 260.092 32.9951 259.942 32.9201C259.792 32.8357 259.464 32.7701 259.229 32.7701C258.901 32.7607 258.601 32.8544 258.001 33.1451C257.57 33.3607 256.867 33.6607 256.445 33.8201C256.032 33.9889 255.526 34.2514 255.32 34.4014C255.123 34.5608 254.72 34.8327 254.429 35.0014C254.138 35.1702 253.548 35.5827 253.116 35.9203C252.685 36.2484 251.982 36.7734 251.541 37.0828C251.063 37.411 249.919 38.4423 248.682 39.6611C247.022 41.2925 246.413 41.8269 245.541 42.4082C244.95 42.8019 244.228 43.2332 243.947 43.3645C243.666 43.4957 243.085 43.7114 242.663 43.8614C242.241 44.002 241.669 44.2552 241.397 44.4052C241.125 44.5646 240.459 44.8552 239.916 45.0615C239.372 45.2584 238.584 45.4927 238.172 45.5771C237.75 45.6615 236.897 45.924 236.269 46.149C235.65 46.3834 234.872 46.6178 234.553 46.6741C234.225 46.7209 233.606 46.8897 233.175 47.0491C232.65 47.246 231.993 47.3866 231.206 47.4804C230.296 47.5929 229.949 47.6022 229.677 47.5272C229.424 47.4429 229.302 47.3491 229.265 47.1897C229.237 47.0585 229.237 46.8428 229.265 46.6928C229.302 46.5522 229.612 46.1678 229.968 45.8303C230.315 45.4927 230.671 45.099 230.765 44.949C230.859 44.7989 231.112 44.4896 231.318 44.2645C231.524 44.0395 232.012 43.627 232.415 43.3551C232.809 43.0738 233.193 42.7926 233.268 42.7176C233.343 42.6426 233.653 42.4175 233.962 42.2113C234.272 42.005 234.693 41.7238 234.9 41.5925C235.106 41.4612 235.443 41.255 235.65 41.1425C235.856 41.0206 236.494 40.6174 237.056 40.2424C237.628 39.8768 238.341 39.4174 238.65 39.2298C238.959 39.0423 239.55 38.7329 239.963 38.5267C240.375 38.3298 240.863 38.0298 241.041 37.8704C241.219 37.7016 241.641 37.4391 241.978 37.2703C242.316 37.111 242.822 36.7828 243.103 36.5484C243.385 36.314 243.797 36.0046 244.013 35.864C244.303 35.6859 244.435 35.5171 244.519 35.2452C244.603 34.9733 244.603 34.8046 244.519 34.5514C244.453 34.3733 244.294 34.1483 244.163 34.0639C243.985 33.942 243.788 33.9139 243.413 33.942C243 33.9795 242.803 34.0639 242.372 34.3733C242.081 34.5889 241.519 34.9264 241.125 35.1327C240.731 35.3296 240.244 35.6202 240.038 35.7702C239.831 35.9109 239.287 36.2015 238.828 36.3984C238.369 36.6047 237.75 36.9516 237.459 37.1672C237.159 37.3829 236.784 37.6172 236.615 37.6922C236.447 37.7579 236.015 37.9641 235.65 38.1516C235.293 38.3392 234.74 38.6204 234.431 38.7798C234.122 38.9392 232.959 39.5111 231.843 40.0549C230.737 40.5987 229.79 41.0487 229.743 41.0487C229.696 41.0487 229.218 41.2643 228.674 41.5175C228.13 41.78 227.409 42.1363 227.071 42.3144C226.734 42.4832 225.852 42.9332 225.102 43.2989C224.352 43.6739 223.499 44.0489 223.19 44.152C222.89 44.2458 222.599 44.3302 222.561 44.3302C222.515 44.3302 222.233 44.452 221.933 44.5927C221.643 44.7333 220.977 45.0708 220.461 45.3334C219.946 45.6052 219.402 45.8678 219.242 45.924C219.092 45.9896 218.624 46.0928 218.211 46.1678C217.799 46.2428 217.283 46.299 217.067 46.299C216.786 46.299 216.608 46.2428 216.477 46.1115C216.374 46.0084 216.289 45.8678 216.289 45.8021C216.289 45.7459 216.374 45.5115 216.477 45.2865C216.58 45.0615 216.861 44.6208 217.105 44.302C217.339 43.9833 217.667 43.552 217.827 43.3457C217.986 43.1395 218.596 42.4269 219.186 41.7519C219.777 41.0862 220.874 39.8955 221.624 39.1267C222.374 38.3485 223.311 37.336 223.705 36.8766C224.09 36.4078 224.662 35.8171 224.962 35.564C225.262 35.3015 225.843 34.7577 226.265 34.3452C226.687 33.9326 227.24 33.3607 227.502 33.0795C227.755 32.7982 228.412 32.17 228.946 31.6919C229.49 31.2137 230.081 30.7355 230.259 30.6324C230.437 30.5199 230.737 30.2949 230.915 30.1355C231.103 29.9761 231.393 29.7417 231.571 29.6105C231.749 29.4792 232.031 29.2542 232.2 29.1042C232.378 28.9542 232.584 28.7104 232.659 28.5698C232.725 28.4292 232.79 28.1666 232.79 27.9979C232.79 27.8291 232.706 27.5479 232.603 27.3791C232.5 27.2103 232.256 27.0041 232.078 26.9291C231.862 26.8353 231.628 26.8072 231.44 26.8541C231.281 26.8822 231.028 27.0041 230.868 27.1166C230.718 27.2197 230.353 27.5291 230.062 27.7916C229.771 28.0541 229.246 28.4292 228.89 28.626C228.534 28.8229 227.99 29.1511 227.69 29.348C227.39 29.5542 227.005 29.7792 226.846 29.8636C226.687 29.948 226.537 30.0418 226.509 30.0793C226.48 30.1074 226.274 30.2668 226.04 30.4262C225.805 30.5855 225.515 30.7449 225.393 30.7824C225.262 30.8199 224.68 31.1199 224.09 31.4481C223.499 31.7856 222.805 32.2356 222.533 32.4607C222.271 32.6857 221.699 33.0607 221.258 33.2857C220.818 33.5107 220.199 33.867 219.899 34.0733C219.589 34.2795 219.046 34.6171 218.68 34.8139C218.324 35.0108 217.517 35.4796 216.899 35.8453C216.28 36.2203 215.248 36.8203 214.602 37.186C213.955 37.5422 212.764 38.2454 211.948 38.7329C211.123 39.2298 210.167 39.7455 209.82 39.8768C209.464 40.0174 208.995 40.2518 208.77 40.4018C208.545 40.5612 208.029 40.9081 207.617 41.18C207.204 41.4612 206.51 41.8831 206.07 42.1269C205.629 42.38 204.72 42.952 204.035 43.402C203.351 43.8614 202.582 44.3395 202.319 44.4708C202.057 44.6021 201.607 44.8646 201.326 45.0427C201.035 45.2302 200.472 45.5302 200.079 45.7084C199.685 45.8865 199.113 46.1678 198.804 46.3272C198.494 46.4772 198.007 46.7584 197.725 46.946C197.444 47.1428 196.835 47.4991 196.366 47.7429C195.907 47.996 195.288 48.3617 195.007 48.5492C194.716 48.7367 194.144 49.0742 193.731 49.2899C193.319 49.4961 192.859 49.6743 192.728 49.6743C192.578 49.6743 192.475 49.618 192.475 49.5524C192.475 49.4774 192.597 49.2524 192.747 49.0555C192.897 48.8586 193.319 48.3898 193.685 48.0335C194.041 47.6679 194.781 46.9553 195.335 46.4397C195.878 45.924 196.685 45.1646 197.107 44.7521C197.538 44.3395 198.644 43.2801 199.554 42.4082C200.463 41.5269 201.935 40.0924 202.816 39.2111C203.707 38.3298 205.132 36.9703 205.985 36.1922C206.839 35.4233 207.907 34.392 208.348 33.9139C208.798 33.4263 209.407 32.8638 209.698 32.6669C209.998 32.4607 210.458 32.0481 210.711 31.7481C210.973 31.4481 211.376 31.0543 211.62 30.8762C211.854 30.6887 212.389 30.173 212.792 29.723C213.195 29.273 213.842 28.476 214.217 27.9416C214.592 27.4166 215.023 26.704 215.173 26.3759C215.361 25.9915 215.464 25.6259 215.464 25.354C215.464 25.1289 215.389 24.7821 215.295 24.5945C215.211 24.407 215.033 24.182 214.911 24.107C214.78 24.0226 214.508 23.957 214.292 23.957C214.02 23.957 213.701 24.0601 213.251 24.2945C212.895 24.4914 212.492 24.6414 212.361 24.6414C212.229 24.6414 211.948 24.6883 211.742 24.7445C211.536 24.8008 211.029 25.0071 210.617 25.2039C210.204 25.4008 209.548 25.6727 209.164 25.804C208.779 25.9446 208.104 26.2165 207.664 26.4134C207.223 26.6103 206.717 26.8072 206.538 26.8447C206.36 26.8822 205.938 27.0603 205.601 27.2385C205.263 27.4166 204.72 27.6604 204.382 27.7916C204.045 27.9229 203.06 28.4292 202.179 28.9261C201.307 29.423 200.397 29.9386 200.163 30.0793C199.929 30.2199 199.572 30.4262 199.366 30.5293C199.16 30.6418 198.56 30.9137 198.025 31.1481C197.491 31.3825 196.9 31.6825 196.713 31.8325C196.525 31.9731 196.028 32.3013 195.616 32.5544C195.203 32.8076 194.556 33.1732 194.172 33.3795C193.788 33.5857 193.281 33.9139 193.047 34.1014C192.813 34.2983 192.409 34.5795 192.147 34.7202C191.894 34.8702 191.444 35.1702 191.153 35.3952C190.863 35.6202 190.253 35.9953 189.803 36.2297C189.344 36.4547 188.941 36.6422 188.894 36.6422C188.856 36.6422 188.819 36.6047 188.819 36.5672C188.819 36.5203 188.912 36.3797 189.016 36.2578C189.128 36.1359 189.362 35.7327 189.531 35.3577C189.719 34.9639 190.141 34.3452 190.544 33.867C190.928 33.417 191.359 32.8357 191.519 32.5732C191.669 32.3107 191.978 31.7856 192.203 31.4106C192.428 31.0356 192.728 30.5105 192.859 30.248C193 29.9855 193.15 29.4886 193.206 29.1511C193.263 28.8136 193.338 28.0166 193.375 27.3885C193.431 26.3384 193.422 26.1978 193.225 25.654C193.113 25.3258 192.85 24.8571 192.653 24.6039C192.447 24.3508 192.053 23.9382 191.763 23.6851C191.472 23.432 191.078 23.1507 190.881 23.0476C190.684 22.9444 190.244 22.7569 189.897 22.6257C189.55 22.4944 189.147 22.3913 188.997 22.3913C188.847 22.3913 188.397 22.4663 187.994 22.5694C187.6 22.6632 186.784 22.8132 186.193 22.9069C185.434 23.0194 184.843 23.1694 184.187 23.432C183.568 23.6851 183.146 23.7976 182.921 23.7789C182.687 23.7601 182.574 23.7039 182.556 23.582C182.537 23.4882 182.546 23.3101 182.574 23.1882C182.603 23.0757 182.874 22.7007 183.165 22.3725C183.465 22.035 184.046 21.3037 184.459 20.7505C184.984 20.038 185.275 19.5223 185.453 19.0254C185.593 18.6317 185.856 18.0129 186.043 17.6472C186.222 17.2816 186.456 16.6065 186.559 16.1471C186.662 15.6877 186.812 15.1252 186.897 14.9002C186.972 14.6751 187.037 14.3658 187.037 14.2064C187.037 14.047 186.972 13.5407 186.887 13.0719C186.803 12.6031 186.634 11.8812 186.512 11.4687C186.381 11.0562 186.128 10.4093 185.959 10.0342C185.734 9.56545 185.462 9.18105 185.106 8.82478C184.815 8.54351 184.365 8.21536 184.093 8.09348C183.831 7.9716 183.343 7.77471 183.006 7.6622C182.668 7.5497 182.078 7.30593 181.693 7.12779C181.065 6.83715 180.84 6.79028 179.584 6.67776C178.815 6.60276 177.859 6.509 177.474 6.46213C177.09 6.40588 175.693 6.38712 174.38 6.41525C173.068 6.44337 171.53 6.52776 170.958 6.60276C170.396 6.66839 169.571 6.75277 169.13 6.79028C168.689 6.8184 167.864 6.92153 167.292 7.02467C166.711 7.11842 165.952 7.2403 165.605 7.29655C165.248 7.35281 164.198 7.43719 163.27 7.48407C162.342 7.53094 161.039 7.65283 160.364 7.75596C159.698 7.85909 158.685 7.98097 158.132 8.03723C157.57 8.09348 157.082 8.15911 157.035 8.18724C156.988 8.21536 156.538 8.28099 156.023 8.32787C155.516 8.37475 154.785 8.49664 154.401 8.59976C154.016 8.7029 153.032 8.87166 152.207 8.98416C151.382 9.0873 150.351 9.22793 149.91 9.30293C149.469 9.37794 148.288 9.59357 147.285 9.78109C146.282 9.96861 145.081 10.203 144.613 10.2967C144.153 10.3811 143.497 10.5218 143.159 10.6061C142.822 10.6811 142.203 10.7937 141.772 10.8499C141.35 10.9062 140.797 11.0374 140.553 11.1405C140.309 11.2531 139.794 11.4218 139.409 11.5249C139.025 11.6281 138.387 11.7968 138.003 11.8906C137.618 11.9844 136.728 12.1719 136.034 12.3125C135.34 12.4531 134.365 12.7063 133.878 12.8844C133.39 13.0532 132.734 13.2688 132.424 13.3438C132.115 13.4282 131.121 13.6813 130.221 13.9157C129.321 14.1407 127.971 14.5439 127.221 14.8064C126.471 15.0689 125.336 15.4533 124.69 15.6596C124.043 15.8659 123.096 16.1846 122.58 16.3628C122.064 16.5409 121.474 16.7565 121.267 16.8315C121.061 16.9065 120.574 17.0565 120.18 17.1503C119.786 17.2534 118.792 17.6097 117.977 17.9472C117.161 18.2848 116.148 18.6692 115.736 18.8004C115.323 18.9223 114.695 19.1754 114.329 19.3442C113.973 19.513 113.27 19.7661 112.783 19.9067C112.295 20.0474 111.686 20.2536 111.423 20.3661C111.17 20.4786 110.701 20.6568 110.401 20.7505C110.092 20.8443 109.52 21.0787 109.135 21.2756C108.742 21.4631 107.804 21.8381 107.045 22.0912C106.295 22.3538 105.132 22.8132 104.466 23.1226C103.81 23.432 103.041 23.732 102.779 23.807C102.507 23.8726 102.254 23.8914 102.216 23.8539C102.179 23.8164 102.263 23.5632 102.404 23.3007C102.544 23.0288 103.126 22.26 103.698 21.5943C104.269 20.9193 104.963 20.038 105.235 19.6255C105.507 19.2129 105.957 18.5566 106.22 18.1722C106.482 17.7878 107.12 16.6253 107.635 15.594C108.142 14.5626 108.62 13.5219 108.695 13.2782C108.77 13.0344 108.882 12.2469 108.948 11.5343C109.042 10.4843 109.042 10.1092 108.948 9.63108C108.873 9.27481 108.582 8.54351 108.226 7.81222C107.795 6.93091 107.41 6.3215 106.838 5.60895C106.407 5.06516 105.666 4.24949 105.179 3.79008C104.541 3.18067 104.148 2.88065 103.698 2.68376C103.36 2.53375 102.994 2.36499 102.891 2.30874C102.788 2.25249 102.301 1.99934 101.813 1.75558C101.326 1.51181 100.669 1.2493 100.36 1.17429C100.05 1.08991 99.5442 0.996155 99.2348 0.958656C98.9254 0.92115 98.2503 0.752388 97.7347 0.574257C96.8534 0.264862 96.6846 0.246109 95.0626 0.171104C94.1063 0.124222 92.9531 0.0585938 92.4843 0.0210953C92.0249 -0.0070343 91.6124 -0.0070343 91.5843 0.0210953ZM94.1251 1.81184C94.922 1.88684 96.0189 2.02747 96.5627 2.1306C97.1065 2.22436 98.2128 2.4775 99.0285 2.69314C99.8442 2.8994 100.941 3.25568 101.466 3.48069C101.991 3.7057 102.704 4.07135 103.032 4.29636C103.369 4.52138 103.979 5.04641 104.391 5.45894C104.813 5.88084 105.385 6.57464 105.666 7.01529C105.957 7.45594 106.351 8.18724 106.538 8.65602C106.735 9.11543 106.932 9.66858 106.988 9.87485C107.035 10.0905 107.054 10.6718 107.017 11.2343C106.979 11.7781 106.895 12.5 106.829 12.8469C106.754 13.2313 106.52 13.8126 106.21 14.3939C105.938 14.9002 105.507 15.7158 105.263 16.2034C105.01 16.6909 104.719 17.2441 104.616 17.4222C104.504 17.6003 104.26 17.9847 104.082 18.266C103.904 18.5473 103.369 19.2879 102.91 19.9067C102.441 20.5255 101.56 21.6412 100.941 22.3913C100.322 23.1413 99.6754 23.8726 99.5067 24.032C99.3473 24.182 99.0191 24.5477 98.7941 24.8289C98.5597 25.1102 97.9597 25.7665 97.444 26.2915C96.8815 26.8541 96.1971 27.4447 95.7189 27.7541C95.2783 28.0354 94.5189 28.4948 94.0313 28.7667C93.5438 29.0479 92.925 29.4136 92.6531 29.5824C92.3812 29.7511 92.1374 29.8917 92.1093 29.8917C92.0812 29.8917 91.8374 30.0699 91.5655 30.2761C91.2936 30.4918 90.8624 30.8012 90.6092 30.9699C90.3467 31.1293 89.8873 31.495 89.5779 31.7762C89.2685 32.0575 88.8091 32.4419 88.5466 32.6294C88.2934 32.8169 87.7215 33.342 87.2809 33.792C86.8402 34.2514 86.3527 34.7483 86.2027 34.9077C86.0433 35.0577 85.7902 35.3577 85.6402 35.5546C85.4808 35.7515 85.2464 36.1171 85.1058 36.3515C84.9651 36.5859 84.7307 37.036 84.5807 37.3453C84.4213 37.6547 84.2338 38.0579 84.1588 38.2454C84.0838 38.4329 83.8025 38.8361 83.5494 39.1455C83.2869 39.4549 82.79 39.9236 82.4337 40.1862C82.0868 40.4393 81.5243 40.9174 81.1961 41.2362C80.8586 41.555 80.3523 41.9769 80.0711 42.1738C79.7804 42.3707 79.4429 42.6426 79.3116 42.7832C79.1804 42.9238 78.8897 43.1676 78.6553 43.327C78.4209 43.4864 77.9428 43.852 77.5865 44.1333C77.2302 44.4239 76.5927 44.9771 76.1802 45.3615C75.7583 45.7553 75.1864 46.2522 74.9051 46.4772C74.6238 46.6928 74.1363 47.0866 73.8269 47.3491C73.5175 47.6116 72.88 48.1367 72.4018 48.5117C71.9237 48.8961 71.4267 49.3555 71.2861 49.5336C71.1549 49.7118 70.7611 50.0493 70.4142 50.2743C70.0579 50.4993 69.5891 50.8556 69.3454 51.0618C69.111 51.2681 68.811 51.4556 68.6703 51.4931C68.5109 51.5306 68.3328 51.5025 68.1547 51.3994C68.0047 51.3056 67.8171 51.0712 67.7234 50.8743C67.6203 50.6306 67.4234 50.4243 67.1702 50.2743C66.8608 50.0962 66.6452 50.0493 66.1764 50.0493C65.8483 50.0493 65.3701 50.1055 65.1076 50.1805C64.8545 50.2555 64.32 50.4431 63.9356 50.5931C63.5512 50.7524 62.9793 50.9775 62.6699 51.09C62.2387 51.2494 61.9668 51.4462 61.498 51.915C61.1605 52.2619 60.6636 52.862 60.401 53.2651C60.1292 53.6589 59.8198 54.1652 59.7072 54.3808C59.5291 54.7371 59.5104 54.8871 59.5572 55.684C59.5947 56.4153 59.6604 56.706 59.8948 57.2497C60.0541 57.6154 60.1854 57.981 60.1854 58.0654C60.1854 58.1498 60.1385 58.2998 60.0916 58.4029C60.0354 58.4967 59.6604 58.8155 59.2478 59.0967C58.8447 59.3874 58.3103 59.7999 58.0571 60.0249C57.8134 60.2499 57.4759 60.5124 57.3071 60.6156C57.1477 60.7093 56.7258 61.0094 56.3695 61.2812C56.0226 61.5531 55.3945 62.0032 54.9819 62.2844C54.5694 62.5657 53.7256 63.1001 53.1068 63.4658C52.488 63.8408 51.6911 64.3189 51.3255 64.544C50.9692 64.7596 50.416 65.0596 50.1066 65.219C49.7972 65.369 49.3941 65.5378 49.216 65.594C49.0378 65.6503 48.5972 65.7815 48.2315 65.9034C47.8752 66.0159 47.5377 66.1378 47.4815 66.1753C47.4346 66.2222 46.9283 66.4097 46.3564 66.6066L45.3251 66.9535L43.1687 67.0285C41.8842 67.066 40.8529 67.066 40.6092 67.0097C40.3841 66.9629 39.8779 66.7378 39.4841 66.5128C39.0903 66.2878 38.6778 65.9878 38.5746 65.8565C38.4246 65.6503 38.3778 65.4253 38.359 64.7877C38.3309 64.0564 38.3496 63.9345 38.5746 63.5501C38.7059 63.3158 38.884 62.9782 38.9684 62.8001C39.0528 62.622 39.1466 62.1438 39.1841 61.75C39.2309 61.1875 39.3059 60.9343 39.5028 60.6343C39.6435 60.4281 40.0466 59.9405 40.4029 59.5561C40.7592 59.1717 41.1811 58.6092 41.3405 58.3092C41.5092 57.9998 41.8374 57.5404 42.0811 57.2872C42.3155 57.0341 42.8124 56.6403 43.1687 56.4247C43.5343 56.209 43.9562 55.9184 44.125 55.7778C44.2844 55.6465 44.6219 55.4121 44.875 55.2527C45.1188 55.1027 45.6251 54.7652 45.9814 54.5121C46.347 54.2495 46.8721 53.8464 47.1533 53.6026C47.444 53.3589 48.0346 52.9276 48.4659 52.6369C48.9066 52.3463 49.5347 51.9056 49.8629 51.6431C50.191 51.39 50.6692 50.9962 50.9317 50.7806C51.1848 50.5556 51.7005 50.143 52.0755 49.8618C52.4412 49.5805 52.9943 49.1586 53.2943 48.9242C53.6037 48.6898 54.1006 48.2679 54.4194 47.9773C54.7288 47.6866 55.1976 47.3116 55.4507 47.1522C55.7132 46.9928 56.1164 46.5991 56.3695 46.2709C56.6227 45.9428 56.8758 45.474 56.9602 45.1927C57.1008 44.7239 57.1008 44.6583 56.9508 44.2645C56.8196 43.927 56.6789 43.7676 56.2195 43.477C55.9101 43.2707 55.4882 43.0645 55.2726 43.0082C55.0663 42.952 54.7288 42.9332 54.5225 42.9613C54.3163 42.9988 53.8381 43.1488 53.4631 43.2989C53.0881 43.4489 52.4974 43.7864 52.1505 44.0489C51.813 44.302 51.4848 44.5177 51.4286 44.5177C51.3723 44.5177 51.1567 44.6021 50.9504 44.7146C50.7442 44.8271 50.4067 45.0708 50.2004 45.2584C49.9941 45.4552 49.7222 45.6803 49.6004 45.7646C49.4691 45.849 48.9347 46.3084 48.3909 46.7866C47.8565 47.2647 46.8814 48.2398 46.2251 48.9617C45.5782 49.6743 44.8 50.5368 44.4907 50.8837C44.1906 51.2212 43.8062 51.6525 43.6468 51.8306C43.4875 52.0088 43.1968 52.3744 43.0093 52.6369C42.8218 52.9088 42.5968 53.2651 42.503 53.4339C42.4186 53.612 42.1374 53.9589 41.8936 54.2214C41.6498 54.4746 41.3217 54.859 41.1717 55.0746C41.0123 55.2902 40.656 55.6653 40.3654 55.909C40.0747 56.1622 39.5778 56.5091 39.2591 56.6872C38.9309 56.856 38.0121 57.3435 37.2152 57.7654C36.4183 58.1779 35.2744 58.7592 34.6838 59.0499C34.0931 59.3499 33.0149 59.8749 32.293 60.2218C31.5711 60.5687 30.5773 61.0187 30.0897 61.225C29.6022 61.4313 28.824 61.7782 28.3552 62.0032C27.8958 62.2376 27.2208 62.5282 26.8552 62.6595C26.4989 62.8001 25.9457 63.0064 25.6363 63.1282C25.3269 63.2501 24.755 63.4376 24.3706 63.5501C23.9862 63.672 23.3487 63.9064 22.9549 64.0752C22.5611 64.2533 21.7361 64.5252 21.1267 64.6846C20.5079 64.844 19.8891 65.0127 19.7297 65.0502C19.5797 65.0971 19.1578 65.2096 18.7921 65.3128C18.4359 65.4159 17.8452 65.5471 17.4796 65.6034C17.1233 65.6596 16.4201 65.819 15.9326 65.9597L15.0419 66.2128L12.2011 66.2034C9.81031 66.1847 9.27591 66.1566 8.87275 66.0253C8.60086 65.9409 8.34772 65.8378 8.29147 65.8003C8.24459 65.7628 7.92582 65.6409 7.5883 65.519C7.25078 65.3971 6.82887 65.2377 6.65074 65.1627C6.4726 65.0877 6.13508 64.9377 5.91007 64.8346C5.68505 64.7315 5.2069 64.4033 4.83187 64.1127C4.46622 63.822 4.06307 63.4001 3.93181 63.1845C3.80056 62.9689 3.59429 62.6313 3.47241 62.4438C3.35053 62.2563 3.06926 61.7125 2.85362 61.2531C2.63798 60.7843 2.39422 60.1937 2.30984 59.9405C2.22546 59.678 2.1317 59.2842 2.10357 59.0405C2.06607 58.8061 2.08482 57.9248 2.14107 57.0716C2.21608 55.9559 2.31921 55.234 2.5161 54.4558C2.65673 53.8651 2.83487 53.1245 2.90987 52.8151C2.9755 52.5057 3.16301 51.915 3.3224 51.5025C3.49116 51.09 3.67867 50.5181 3.7443 50.2368C3.80993 49.9555 3.93181 49.5336 4.00682 49.2992C4.0912 49.0648 4.34434 48.5398 4.57873 48.1273C4.80374 47.7148 5.22565 46.9272 5.49754 46.3647C5.76943 45.8115 6.07883 45.2584 6.18196 45.1458C6.28509 45.024 6.57573 44.6771 6.8195 44.3583C7.06326 44.0489 7.5883 43.3832 7.98207 42.8957C8.38522 42.3988 8.75087 41.9675 8.80713 41.9394C8.86338 41.9113 9.13527 41.555 9.42591 41.1612C9.71656 40.7674 10.0635 40.3174 10.2041 40.1768C10.3353 40.0361 10.6354 39.633 10.8698 39.2861C11.1041 38.9392 11.5354 38.461 11.8354 38.2267C12.1355 37.9829 12.623 37.4672 12.923 37.0735C13.223 36.6797 13.8512 36.014 14.3012 35.5921C14.7606 35.1796 15.2857 34.7296 15.4638 34.5889C15.6419 34.4577 16.1763 33.9889 16.6357 33.5482C17.1045 33.1076 17.8171 32.4888 18.2296 32.1606C18.6421 31.8325 19.2234 31.3731 19.5234 31.1387C19.8235 30.8949 20.1422 30.6043 20.2172 30.4824C20.3016 30.3605 20.6485 30.0605 20.986 29.8167C21.3235 29.5824 21.8767 29.1323 22.2236 28.8136C22.5611 28.4948 22.983 28.1854 23.1612 28.1104C23.3299 28.0448 23.6487 27.8572 23.855 27.6979C24.0612 27.5479 24.38 27.2853 24.5581 27.1259C24.7363 26.9572 25.1207 26.6853 25.4019 26.5165C25.6832 26.3478 26.2551 25.9634 26.6676 25.6634C27.0802 25.3633 27.7833 24.8477 28.2334 24.5289C28.6834 24.2008 29.3116 23.7976 29.621 23.6195C29.9303 23.4413 30.2585 23.2351 30.3429 23.1507C30.4366 23.0663 30.7085 22.8413 30.9429 22.6538C31.1773 22.4569 31.5336 22.2319 31.7398 22.1475C31.9367 22.0631 32.5086 21.735 32.9962 21.4162C33.4837 21.0881 34.2431 20.6474 34.6838 20.4318C35.1244 20.2067 35.5463 19.9724 35.6213 19.9067C35.6963 19.8411 36.0714 19.6255 36.4558 19.4286C36.8402 19.2411 37.3933 18.9129 37.6746 18.7067C37.9652 18.5098 38.584 18.1629 39.0434 17.9379C39.5122 17.7128 40.1216 17.4035 40.4029 17.2534C40.6842 17.0941 41.2373 16.8128 41.6217 16.6253C42.0061 16.4378 42.3905 16.2221 42.4655 16.1565C42.5405 16.0909 43.0093 15.819 43.4968 15.5471C43.9844 15.2752 45.3157 14.5814 46.4502 14.0095C47.5846 13.4282 48.9816 12.7813 49.5441 12.5563C50.116 12.3313 50.8942 11.9656 51.288 11.7406C51.6817 11.5156 52.0286 11.3281 52.0568 11.3281C52.0943 11.3281 52.9287 11.0093 53.9225 10.6249C54.9163 10.2311 56.0133 9.79047 56.3508 9.64046C56.6883 9.49982 57.2321 9.32169 57.5696 9.26543C57.8978 9.19981 58.404 9.0873 58.6853 9.01229C58.9666 8.93729 59.3885 8.78728 59.6229 8.68414C59.8573 8.58102 60.1104 8.44038 60.1854 8.37475C60.2604 8.30912 60.7104 8.08411 61.1698 7.87785C61.6386 7.68095 62.3324 7.43719 62.7168 7.35281C63.1012 7.25906 63.9263 7.00591 64.5451 6.7809C65.1638 6.55589 66.0733 6.24649 66.5608 6.09648C67.0483 5.9371 67.7421 5.75896 68.0984 5.70271C68.4547 5.64645 68.961 5.51519 69.2235 5.40269C69.486 5.29955 69.9267 5.13079 70.2079 5.03704C70.4892 4.94328 70.8173 4.8589 70.9392 4.8589C71.0705 4.8589 71.4736 4.73701 71.8393 4.58701C72.2143 4.44637 72.8143 4.26824 73.1706 4.21198C73.5363 4.14635 74.1457 3.99635 74.5301 3.87447C74.9145 3.75258 75.6551 3.58382 76.1708 3.49944C76.6865 3.42444 77.3615 3.29317 77.6709 3.21817C77.9803 3.15254 78.7678 2.95566 79.4148 2.80565C80.0617 2.64626 80.9336 2.4775 81.3368 2.43062C81.7399 2.37437 82.9025 2.28999 83.9057 2.24311C84.9089 2.18686 86.1558 2.0931 86.6715 2.04622C87.1871 1.98997 88.4903 1.90559 89.5685 1.85871C90.6467 1.80246 91.5562 1.7462 91.5749 1.71808C91.603 1.68995 91.8562 1.6712 92.1468 1.6712C92.4375 1.6712 93.3281 1.73682 94.1251 1.81184ZM174.455 29.2355C174.408 29.3948 174.061 29.8449 173.696 30.2386C173.321 30.6324 172.599 31.3075 172.083 31.7481C171.568 32.1888 170.939 32.7701 170.677 33.0326C170.424 33.2951 170.058 33.6795 169.88 33.8857C169.702 34.0826 169.13 34.6452 168.614 35.1327C168.099 35.6202 167.18 36.539 166.57 37.186C165.961 37.8329 165.305 38.4798 165.117 38.6298C164.93 38.7798 164.358 39.3048 163.842 39.8018C163.336 40.2893 162.67 40.8518 162.361 41.0487C162.061 41.2456 161.629 41.5925 161.414 41.8081C161.198 42.0238 160.804 42.3425 160.532 42.5113C160.27 42.6894 159.801 43.0551 159.501 43.327C159.201 43.6082 158.62 44.0676 158.207 44.3583C157.795 44.6489 157.27 45.0333 157.035 45.2208C156.801 45.399 156.407 45.6896 156.145 45.8584C155.892 46.0365 155.507 46.2897 155.301 46.4209C155.095 46.5616 154.551 46.946 154.082 47.2835C153.623 47.6116 152.948 48.0617 152.582 48.2773C152.226 48.4929 151.635 48.8867 151.269 49.1586C150.913 49.4305 150.463 49.7211 150.285 49.8149C150.107 49.9086 149.807 50.0962 149.629 50.2274C149.45 50.3587 149.113 50.6212 148.879 50.8181C148.644 51.0056 147.932 51.4369 147.285 51.765C146.638 52.0932 145.822 52.4776 145.456 52.6276C145.1 52.7682 144.594 52.9838 144.35 53.1151C144.097 53.237 143.703 53.4807 143.459 53.6495C143.216 53.8183 142.606 54.1745 142.091 54.4464C141.434 54.7933 141.087 54.9246 140.872 54.9058C140.628 54.8871 140.572 54.8308 140.553 54.6152C140.534 54.4464 140.609 54.2214 140.75 54.0058C140.881 53.8089 141.266 53.3401 141.603 52.9557C141.941 52.5713 142.597 51.765 143.056 51.165C143.525 50.5649 144.013 49.9743 144.163 49.8618C144.303 49.7493 144.791 49.3086 145.25 48.8773C145.7 48.4461 146.375 47.846 146.75 47.5554C147.116 47.2554 147.829 46.6366 148.316 46.1584C148.804 45.6896 149.45 45.1365 149.751 44.9396C150.051 44.7427 150.463 44.3677 150.66 44.1052C150.847 43.8333 151.157 43.4864 151.344 43.327C151.532 43.1676 151.944 42.8769 152.273 42.6894C152.601 42.5019 153.182 42.0331 153.566 41.6581C153.96 41.2831 154.513 40.8518 154.832 40.6924C155.141 40.5331 155.61 40.2143 155.863 39.9799C156.126 39.7361 156.557 39.4174 156.829 39.2673C157.101 39.108 157.645 38.6861 158.029 38.3298C158.414 37.9735 159.032 37.5047 159.407 37.2891C159.782 37.0735 160.373 36.7078 160.72 36.4734C161.067 36.2484 161.62 35.9484 161.939 35.8265C162.258 35.6952 162.67 35.4796 162.848 35.3483C163.026 35.2171 163.458 34.8608 163.795 34.5608C164.264 34.1483 164.564 33.9701 165.023 33.8295C165.352 33.7264 165.848 33.4732 166.13 33.267C166.411 33.0513 167.077 32.6763 167.611 32.4232C168.136 32.17 168.811 31.8137 169.111 31.6356C169.411 31.4575 169.992 31.1293 170.405 30.9137C170.808 30.6981 171.755 30.2105 172.496 29.8261C173.236 29.4511 173.93 29.1417 174.024 29.1417C174.118 29.1417 174.193 29.0948 174.193 29.0479C174.193 28.9917 174.277 28.9542 174.371 28.9542C174.54 28.9542 174.549 28.9823 174.455 29.2355ZM277.756 34.5889C277.831 34.6452 277.887 34.8139 277.887 34.9546C277.887 35.1233 277.756 35.3671 277.549 35.6202C277.362 35.8453 276.968 36.2015 276.677 36.4172C276.387 36.6234 275.768 37.0453 275.309 37.3453C274.84 37.6454 274.315 38.011 274.137 38.1516C273.958 38.2923 273.555 38.536 273.246 38.6861C272.936 38.8454 272.261 39.1642 271.746 39.408C271.23 39.6424 270.368 40.0455 269.824 40.2987C269.28 40.5518 268.352 40.9737 267.761 41.2456C267.171 41.5081 266.57 41.7425 266.439 41.7706C266.299 41.7988 266.158 41.7613 266.083 41.6769C265.989 41.555 265.999 41.48 266.102 41.2643C266.177 41.1237 266.552 40.7018 266.936 40.3455C267.32 39.9799 268.108 39.3048 268.689 38.8454C269.28 38.3767 269.927 37.8329 270.143 37.636C270.349 37.4297 270.808 37.0828 271.164 36.8578C271.511 36.6234 272.083 36.314 272.43 36.1546C272.777 35.9953 273.377 35.6765 273.762 35.4609C274.268 35.1702 274.821 34.9639 275.73 34.7296C276.462 34.5327 277.127 34.4108 277.306 34.4389C277.484 34.4577 277.681 34.5233 277.756 34.5889ZM188.884 36.7922C188.856 36.8203 188.772 36.8297 188.706 36.8016C188.631 36.7734 188.659 36.7453 188.762 36.7453C188.865 36.7359 188.922 36.7641 188.884 36.7922ZM84.4588 41.63C84.5526 41.855 84.6557 42.155 84.6932 42.305C84.7307 42.455 84.8807 42.7551 85.0307 42.9707C85.1714 43.177 85.7714 43.8426 86.3621 44.4333C86.9434 45.0333 87.6747 45.699 87.9841 45.9053C88.2934 46.1209 88.8841 46.5709 89.2966 46.9178C89.7092 47.2554 90.1779 47.5929 90.328 47.6773C90.4873 47.7616 90.9092 48.0523 91.2749 48.3335C91.7624 48.6992 92.1468 48.8961 92.6812 49.0648C93.1219 49.2055 93.8438 49.5524 94.4532 49.918C95.0251 50.2555 95.7189 50.6493 96.0002 50.79C96.2815 50.94 96.7502 51.1275 97.0315 51.2212C97.3128 51.315 97.6597 51.4462 97.7909 51.5119C97.9316 51.5775 98.0628 51.7088 98.1003 51.7931C98.1285 51.8775 98.0722 52.065 97.9597 52.2244C97.8472 52.3744 97.5472 52.5901 97.2753 52.7119C97.0128 52.8245 96.6752 52.9557 96.5159 52.9932C96.3658 53.0307 95.8971 53.2839 95.4845 53.5558C95.072 53.8276 94.5657 54.1558 94.3595 54.2777C94.1532 54.3902 93.1406 55.0559 92.1093 55.7403C91.078 56.4247 89.9436 57.1935 89.5779 57.4466C89.2216 57.6904 88.331 58.2248 87.609 58.628C86.8871 59.0217 86.1558 59.453 85.9871 59.5843C85.8277 59.7061 85.2089 60.0437 84.6276 60.3343C84.0557 60.625 83.0712 61.1406 82.4525 61.4781C81.8337 61.825 80.6711 62.4251 79.8742 62.8188C79.0772 63.222 78.0365 63.672 77.5771 63.822C77.1084 63.9814 76.1052 64.2064 75.3457 64.3471C74.3613 64.5158 73.6206 64.5815 72.8143 64.5815C71.9049 64.5815 71.5955 64.544 71.2861 64.4033C71.0798 64.3096 70.8173 64.1127 70.7048 63.972C70.5548 63.7939 70.4986 63.5783 70.4986 63.2689C70.4986 63.0345 70.5642 62.6032 70.6486 62.3219C70.7423 62.0313 71.0705 61.4219 71.4455 60.8781C71.8018 60.3624 72.3362 59.7249 72.6362 59.4624C72.9268 59.1999 73.4144 58.7967 73.705 58.5529C73.9957 58.3186 74.3801 58.0654 74.5488 57.9904C74.7176 57.9154 75.0082 57.831 75.1957 57.7935C75.3739 57.7654 75.7395 57.606 75.9927 57.4373C76.2458 57.2779 76.7521 57.0154 77.1084 56.8466C77.474 56.6778 78.0084 56.4528 78.3084 56.3309C78.6085 56.209 78.9085 56.0684 78.9647 56.0028C79.0304 55.9465 79.2929 55.7403 79.5554 55.5621C79.8179 55.3746 80.2023 55.1402 80.4086 55.0277C80.6148 54.9246 80.9149 54.7277 81.0836 54.5964C81.2899 54.4183 81.3743 54.2683 81.3743 54.062C81.3743 53.912 81.3274 53.6964 81.2711 53.5839C81.2149 53.4714 81.0555 53.2557 80.9149 53.1151C80.7836 52.9651 80.5586 52.787 80.4179 52.7119C80.2773 52.6369 79.9304 52.5807 79.6491 52.5807C79.3585 52.5807 78.8616 52.6744 78.5428 52.7776C78.2147 52.8901 77.4646 53.237 76.874 53.537C76.2833 53.8464 75.477 54.2683 75.0832 54.4839C74.6895 54.6996 74.0519 55.1684 73.6769 55.5153C73.2925 55.8715 72.73 56.3403 72.4206 56.5559C72.1112 56.781 71.7268 57.0247 71.5674 57.1091C71.408 57.1935 70.883 57.3247 70.3954 57.4091C69.9079 57.4935 69.2047 57.606 68.8391 57.6435C68.4641 57.6904 68.0234 57.7654 67.8546 57.8217C67.6859 57.8779 67.1327 58.0092 66.6171 58.1123C66.1108 58.2154 65.492 58.2998 65.2389 58.2998C64.9013 58.2998 64.7326 58.2529 64.5826 58.1029C64.4513 57.9717 64.4138 57.8498 64.4607 57.7091C64.4888 57.5966 64.5732 57.4091 64.6482 57.2872C64.7232 57.1747 64.8732 57.0247 64.9763 56.9591C65.0795 56.9028 65.3326 56.631 65.5295 56.3591C65.7358 56.0872 66.2327 55.6278 66.6264 55.3184C67.0296 55.0183 67.489 54.6902 67.6484 54.5871C67.8078 54.4933 68.3234 54.1183 68.8016 53.762C69.2704 53.4057 69.6548 53.0776 69.6548 53.0401C69.6548 52.9932 70.0485 52.6651 70.5267 52.3088C70.9955 51.9525 71.4924 51.5494 71.6236 51.4087C71.7549 51.2681 72.1768 50.9212 72.5612 50.6306C72.9456 50.3399 73.6488 49.7586 74.1082 49.3461C74.577 48.9336 75.2051 48.3898 75.5145 48.146C75.8239 47.9023 76.2177 47.5366 76.3864 47.3304C76.5552 47.1241 76.9396 46.7959 77.2302 46.5897C77.5209 46.3928 77.849 46.1303 77.9522 46.0178C78.0553 45.9053 78.3741 45.6521 78.6553 45.4552C78.9366 45.2584 79.3023 44.9677 79.4523 44.7989C79.6116 44.6302 79.9773 44.3302 80.2773 44.1239C80.5867 43.9176 81.3086 43.3082 81.8899 42.7832C82.4806 42.2488 83.1369 41.6769 83.3525 41.5269C83.5775 41.3581 83.8682 41.2362 84.0182 41.2362C84.2432 41.2362 84.3088 41.2925 84.4588 41.63ZM53.8662 45.6896C53.9038 45.774 53.8756 45.9615 53.81 46.1115C53.7444 46.2615 53.585 46.4584 53.4443 46.5428C53.3131 46.6366 52.9287 46.9366 52.5912 47.2272C52.263 47.5179 51.8224 47.9023 51.6255 48.071C51.4286 48.2492 51.0536 48.5679 50.7817 48.7648C50.5098 48.9617 50.0785 49.3274 49.816 49.5711C49.5535 49.8055 49.1691 50.1337 48.9722 50.293C48.7659 50.4524 48.344 50.7243 48.044 50.8837C47.7346 51.0431 47.2752 51.3244 47.0221 51.5025C46.7783 51.6806 46.5345 51.8306 46.4877 51.8306C46.4408 51.8306 46.4033 51.7838 46.4033 51.7181C46.4033 51.6619 46.6002 51.39 46.8533 51.1275C47.0971 50.8556 47.5658 50.3118 47.9034 49.918C48.2409 49.5242 48.7753 48.9898 49.1034 48.7273C49.4222 48.4648 49.8066 48.1085 49.9473 47.9398C50.0879 47.771 50.6223 47.3491 51.138 47.0022C51.6536 46.6459 52.263 46.2053 52.4974 46.0084C52.7318 45.8209 52.9849 45.6427 53.0599 45.6146C53.135 45.5865 53.3412 45.5584 53.51 45.5584C53.6975 45.549 53.8381 45.6052 53.8662 45.6896ZM65.7264 52.3838C65.8764 52.5057 65.942 52.6557 65.942 52.8901C65.942 53.1807 65.8483 53.3307 65.342 53.8745C65.0045 54.2402 64.3294 54.9527 63.8419 55.4778C63.3544 56.0028 62.8199 56.5184 62.6606 56.6122C62.5012 56.7153 62.2574 56.7997 62.1168 56.7997C61.9855 56.7997 61.7886 56.7153 61.6949 56.6216C61.5917 56.5184 61.4792 56.2841 61.4417 56.0965C61.4042 55.8715 61.4324 55.6278 61.5355 55.3465C61.6386 55.084 61.9668 54.6715 62.4637 54.1558C62.895 53.7339 63.4669 53.1901 63.7388 52.9557C64.02 52.7213 64.3763 52.4588 64.5357 52.3744C64.6951 52.29 64.9763 52.215 65.1638 52.2057C65.3701 52.2057 65.5951 52.2807 65.7264 52.3838ZM103.613 53.7714C104.213 54.0995 104.86 54.4183 105.066 54.4746C105.263 54.5214 105.535 54.6527 105.685 54.7558C105.826 54.859 105.985 55.0183 106.041 55.1309C106.098 55.234 106.116 55.4215 106.088 55.5434C106.051 55.6934 105.798 55.9184 105.357 56.1997C104.991 56.4341 104.588 56.7622 104.457 56.9216C104.316 57.0904 104.035 57.3904 103.829 57.5966C103.623 57.8029 103.201 58.1217 102.901 58.2998C102.601 58.4779 102.047 58.8623 101.672 59.153C101.297 59.453 100.744 59.8187 100.444 59.9687C100.135 60.1187 99.6192 60.3437 99.291 60.4656C98.9629 60.5781 98.4191 60.8593 98.0816 61.0844C97.7441 61.3094 97.3878 61.4875 97.3034 61.4875C97.219 61.4875 96.8346 61.7125 96.4596 61.9844C96.0752 62.2563 95.5314 62.5845 95.2501 62.697C94.9689 62.8188 94.5376 63.0345 94.2938 63.1939C94.0501 63.3439 93.7032 63.5126 93.5157 63.5595C93.3281 63.6158 93.0469 63.6251 92.8969 63.597C92.7469 63.5595 92.5781 63.4564 92.5312 63.3533C92.4562 63.2314 92.475 63.0814 92.5781 62.8282C92.6625 62.6313 93.075 62.1157 93.5063 61.675C93.9376 61.2344 94.3876 60.7281 94.5095 60.5499C94.622 60.3718 94.9783 59.9218 95.297 59.5655C95.6064 59.1999 95.9814 58.7217 96.1315 58.4873C96.2721 58.2529 96.6096 57.8967 96.8721 57.6904C97.1346 57.4841 97.5565 57.1279 97.8191 56.8935C98.0722 56.6591 98.4472 56.2466 98.6441 55.9747C98.8504 55.6934 99.3848 55.1027 99.8348 54.6527C100.275 54.2027 100.8 53.7245 100.988 53.5745C101.185 53.4245 101.504 53.2557 101.691 53.1901C101.888 53.1151 102.151 53.087 102.282 53.1151C102.413 53.1432 103.004 53.4432 103.613 53.7714ZM110.907 56.5184C111.245 56.6685 111.648 56.8091 111.798 56.8466C111.957 56.8841 112.267 56.9778 112.501 57.0622C112.736 57.1466 113.158 57.3529 113.439 57.531C113.72 57.6998 114.039 57.8592 114.142 57.8779C114.245 57.906 114.63 57.9623 114.986 58.0092C115.351 58.056 116.214 58.2061 116.908 58.3467C117.648 58.4967 118.408 58.703 118.736 58.8623C119.045 59.0124 119.392 59.2186 119.514 59.3311C119.72 59.528 119.72 59.5468 119.57 59.7155C119.486 59.8093 119.289 59.9312 119.12 59.978C118.961 60.0343 118.202 60.1843 117.423 60.3062C116.655 60.4281 115.305 60.6437 114.423 60.7843C113.551 60.9156 112.473 61.0844 112.032 61.1594C111.592 61.225 110.776 61.3094 110.204 61.3469C109.642 61.375 108.854 61.3563 108.46 61.3094C108.067 61.2531 107.382 61.0937 106.951 60.9437C106.51 60.7843 106.032 60.5968 105.873 60.5218C105.713 60.4374 105.563 60.2968 105.526 60.2218C105.498 60.1374 105.47 59.9312 105.47 59.7718C105.47 59.5936 105.563 59.3686 105.685 59.228C105.798 59.0874 106.248 58.6842 106.688 58.3279C107.129 57.9623 107.588 57.5498 107.72 57.4091C107.851 57.2685 108.235 56.9685 108.582 56.7341C108.929 56.4997 109.332 56.2841 109.473 56.2372C109.623 56.1903 109.867 56.1809 110.017 56.209C110.176 56.2372 110.57 56.3778 110.907 56.5184Z" fill="#0C3F62"/>
</svg>
